<?xml version="1.0" encoding="utf-8"?>
<!-- Generator: Adobe Illustrator 17.0.0, SVG Export Plug-In . SVG Version: 6.00 Build 0)  -->
<!DOCTYPE svg PUBLIC "-//W3C//DTD SVG 1.1//EN" "http://www.w3.org/Graphics/SVG/1.1/DTD/svg11.dtd">
<svg version="1.1" id="Layer_1" xmlns="http://www.w3.org/2000/svg" xmlns:xlink="http://www.w3.org/1999/xlink" x="0px" y="0px"
	 width="460px" height="460px" viewBox="0 -30 460 460" enable-background="new 0 -30 460 460" xml:space="preserve">
<g>
	<path fill="#FFFFFF" d="M274.313,300.035c-1.366,7.7,7.551,13.396,13.964,8.914c3.572-2.497,3.785-6.584,4.594-10.499
		c1.023-4.95,2.276-9.855,3.82-14.669c4.222-13.16,10.871-25.03,19.162-36.036c7.254-9.63,15.206-18.789,20.815-29.539
		c7.264-13.921,9.864-29.483,9.864-45.071c0-59.719-47.939-110.862-107.572-114.596c-59.632-3.734-113.729,40.867-121.177,100.214
		c-1.983,15.801-1.116,32.602,3.981,47.765c4.042,12.025,11.126,22.334,18.854,32.259c7.369,9.462,14.683,18.892,19.986,29.715
		c3.173,6.476,5.668,13.268,7.597,20.212c2.465,8.872,3.066,18.198,5.705,26.982c4.105,13.665,14.999,23.439,29.631,23.439
		c9.1,0,18.199,0,27.299,0c14.406,0,29.426-2.105,43.612,0.731c-15.96,5.437-34.812,4.041-51.439,4.827
		c-10.309,0.488-37.735-0.863-38.286,14.596c-0.398,11.168,14.404,13.695,22.683,15.007c18.174,2.827,36.645,2.886,54.891,5.064
		c-14.677,1.86-29.523,1.913-44.254,3.166c-8.171,0.735-31.538,2.555-25.151,16.988l-0.189-0.483
		c3.101,8.518,17.657,9.377,25.048,10.863c11.48,2.309,24.402,3.436,35.188,8.192c5.259,11.1,20.816-1.139,11.722-10.485
		c-8.527-8.323-25.851-9.024-36.933-11.091c11.876-0.774,23.796-1.183,35.619-2.62c8.69-1.106,25.625-2.996,25.546-15.098
		l-0.045,0.803c1.642-13.759-21.543-14.297-30.172-15.144c-15.798-1.548-31.739-1.992-47.456-4.307
		c13.14-1.164,26.362-1.178,39.529-1.91c11.288-0.627,25.08-0.773,34.982-6.9c4.709-2.914,8.134-8.162,7.387-13.816
		c-1.334-12.242-17.359-13.955-26.875-14.792c-20.875-1.837-41.754-1.521-62.704-1.521c-12.905,0-13.249-15.325-15.103-24.748
		c-2.963-15.053-7.873-29.712-15.527-43.049c-12.36-21.537-32.54-37.978-36.821-63.538
		C125.822,128.59,176.821,71.909,238.929,76.506c49.178,3.64,88.747,45.525,89.658,94.811c0.237,12.83-1.527,25.839-7.27,37.434
		c-4.601,9.289-11.346,17.239-17.641,25.396C288.463,253.858,278.682,275.421,274.313,300.035
		C273.448,304.908,280.826,263.341,274.313,300.035z M252.295,413.588c0.03-0.228,0.07-0.45,0.13-0.659
		C252.371,413.148,252.33,413.368,252.295,413.588z M205.008,399.614c-0.022,0.013-0.035,0.019-0.035,0.019
		C204.974,399.633,204.998,399.62,205.008,399.614z M274.417,378.536c-0.002-0.064,0.002-0.127,0.013-0.189l-0.012,0.215
		C274.417,378.553,274.416,378.545,274.417,378.536z M277.768,339.144c0.002-0.065,0,0.067,0,0.063
		C277.767,339.185,277.767,339.164,277.768,339.144z M278.11,338.053C278.21,337.91,278.229,337.939,278.11,338.053L278.11,338.053z
		"/>
	<path fill="#FFFFFF" d="M231.708,33.967c4.952,0,8.964-4.013,8.964-8.964v-37.562c0-11.561-17.928-11.561-17.928,0v37.561
		C222.744,29.954,226.757,33.967,231.708,33.967z"/>
	<path fill="#FFFFFF" d="M119.832,73.642c8.173,8.177,20.851-4.502,12.677-12.677l-26.559-26.561
		c-8.173-8.177-20.851,4.502-12.677,12.677L119.832,73.642z"/>
	<path fill="#FFFFFF" d="M81.456,162.875H43.895c-11.561,0-11.561,17.928,0,17.928h37.562
		C93.017,180.803,93.017,162.875,81.456,162.875z"/>
	<path fill="#FFFFFF" d="M117.418,271.036l-26.559,26.561c-8.174,8.176,4.501,20.851,12.677,12.678l26.559-26.561
		C138.269,275.538,125.594,262.864,117.418,271.036z"/>
	<path fill="#FFFFFF" d="M340.167,273.451c-8.174-8.174-20.85,4.503-12.675,12.678l26.561,26.56
		c8.174,8.174,20.85-4.503,12.675-12.678L340.167,273.451z"/>
	<path fill="#FFFFFF" d="M416.105,166.29h-37.562c-11.561,0-11.561,17.928,0,17.928h37.562
		C427.665,184.219,427.665,166.29,416.105,166.29z"/>
	<path fill="#FFFFFF" d="M336.244,78.682c2.294,0,4.588-0.875,6.339-2.626l26.561-26.559c8.174-8.176-4.502-20.85-12.678-12.677
		l-26.561,26.559C324.376,68.908,328.421,78.682,336.244,78.682z"/>
</g>
</svg>
