<?xml version="1.0" encoding="utf-8"?>
<!-- Generator: Adobe Illustrator 17.0.0, SVG Export Plug-In . SVG Version: 6.00 Build 0)  -->
<!DOCTYPE svg PUBLIC "-//W3C//DTD SVG 1.1//EN" "http://www.w3.org/Graphics/SVG/1.1/DTD/svg11.dtd">
<svg version="1.1" xmlns="http://www.w3.org/2000/svg" xmlns:xlink="http://www.w3.org/1999/xlink" x="0px" y="0px" width="216px"
	 height="72px" viewBox="0 0 216 72" enable-background="new 0 0 216 72" xml:space="preserve">
<g id="Art">
	<g>
		<path fill="#FFFFFF" d="M93.784,17.748c-0.403-0.263-0.899-0.489-1.469-0.67c-0.564-0.181-1.203-0.349-1.897-0.499
			c-0.55-0.126-0.95-0.226-1.189-0.291c-0.232-0.065-0.465-0.154-0.69-0.266c-0.219-0.109-0.39-0.239-0.513-0.39
			c-0.116-0.14-0.171-0.304-0.171-0.499c0-0.321,0.174-0.591,0.533-0.824c0.369-0.246,0.872-0.366,1.487-0.366
			c0.663,0,1.145,0.109,1.435,0.328c0.294,0.226,0.554,0.547,0.769,0.953c0.184,0.318,0.352,0.54,0.513,0.684
			c0.171,0.15,0.421,0.229,0.738,0.229c0.352,0,0.646-0.123,0.882-0.366c0.236-0.246,0.352-0.523,0.352-0.83
			c0-0.318-0.089-0.649-0.267-0.981c-0.178-0.328-0.458-0.642-0.837-0.936c-0.373-0.294-0.851-0.533-1.415-0.707
			c-0.564-0.174-1.237-0.263-2.006-0.263c-0.96,0-1.804,0.133-2.519,0.396c-0.721,0.267-1.282,0.656-1.668,1.159
			c-0.386,0.502-0.581,1.087-0.581,1.736c0,0.68,0.188,1.258,0.557,1.719c0.362,0.455,0.858,0.82,1.473,1.08
			c0.601,0.256,1.36,0.482,2.252,0.673c0.653,0.137,1.182,0.27,1.576,0.393c0.372,0.116,0.68,0.284,0.916,0.502
			c0.222,0.212,0.328,0.475,0.328,0.817c0,0.427-0.205,0.779-0.632,1.07c-0.441,0.301-1.022,0.451-1.733,0.451
			c-0.516,0-0.933-0.075-1.244-0.222c-0.311-0.147-0.554-0.335-0.721-0.557c-0.174-0.232-0.342-0.526-0.492-0.875
			c-0.14-0.318-0.308-0.567-0.506-0.735c-0.205-0.174-0.461-0.263-0.755-0.263c-0.359,0-0.66,0.113-0.895,0.335
			c-0.239,0.222-0.359,0.496-0.359,0.81c0,0.502,0.185,1.025,0.55,1.552c0.359,0.519,0.837,0.943,1.412,1.254
			c0.81,0.427,1.842,0.646,3.076,0.646c1.029,0,1.931-0.161,2.683-0.475c0.762-0.314,1.35-0.759,1.743-1.323
			c0.4-0.564,0.601-1.21,0.601-1.917c0-0.588-0.116-1.097-0.349-1.51C94.519,18.36,94.194,18.015,93.784,17.748z"/>
		<path fill="#FFFFFF" d="M0,0v36h216V0H0z M128.502,12.816h4.767V14.2h-4.767V12.816z M21.976,14.952l-0.209,2.693h-2.761v9.356
			h-3.486v-9.356h-1.862v-2.693h1.862v-1.808c0-0.796,0.021-2.026,0.598-2.792c0.612-0.806,1.449-1.353,2.887-1.353
			c2.348,0,3.339,0.335,3.339,0.335l-0.468,2.758c0,0-0.772-0.226-1.497-0.226c-0.724,0-1.374,0.26-1.374,0.984v2.102H21.976z
			 M48.963,25.526h-3.509V14.297h3.509V25.526z M47.118,12.893h-0.024c-1.268,0-2.091-0.858-2.091-1.944
			c0-1.111,0.847-1.951,2.143-1.951c1.292,0,2.088,0.841,2.115,1.948C49.26,12.032,48.437,12.893,47.118,12.893z M63.001,25.526
			h-3.978v-5.809c0-1.521-0.622-2.56-1.992-2.56c-1.046,0-1.627,0.701-1.9,1.377c-0.099,0.239-0.085,0.578-0.085,0.916v6.076h-3.94
			c0,0,0.051-10.293,0-11.229h3.94v1.763c0.232-0.769,1.493-1.869,3.503-1.869c2.495,0,4.453,1.613,4.453,5.092V25.526z
			 M94.022,27.128c-0.851,0-1.651-0.215-2.355-0.591c-0.509,0.096-1.036,0.143-1.572,0.143c-4.74,0-8.585-3.841-8.585-8.585
			c0-0.591,0.058-1.169,0.174-1.726c-0.434-0.742-0.687-1.599-0.687-2.519c0-2.751,2.232-4.979,4.983-4.979
			c0.971,0,1.88,0.28,2.648,0.766c0.479-0.085,0.967-0.126,1.466-0.126c4.743,0,8.585,3.841,8.585,8.585
			c0,0.632-0.068,1.247-0.198,1.842c0.332,0.666,0.52,1.418,0.52,2.211C99.002,24.9,96.77,27.128,94.022,27.128z M125.627,21.838
			c-0.209,0.349-0.472,0.639-0.786,0.875c-0.355,0.273-0.772,0.458-1.258,0.56c-0.482,0.099-1.005,0.15-1.572,0.15h-5.013V12.296
			h5.376c1.357,0.021,2.317,0.417,2.884,1.186c0.338,0.475,0.509,1.039,0.509,1.699c0,0.68-0.171,1.227-0.512,1.637
			c-0.195,0.232-0.475,0.444-0.851,0.636c0.567,0.205,0.995,0.533,1.285,0.981c0.29,0.448,0.434,0.991,0.434,1.63
			C126.123,20.724,125.959,21.315,125.627,21.838z M134.998,19.914h-5.991c0.034,0.824,0.318,1.405,0.861,1.736
			c0.328,0.205,0.721,0.308,1.186,0.308c0.485,0,0.885-0.123,1.189-0.376c0.171-0.133,0.318-0.325,0.444-0.564h2.198
			c-0.058,0.485-0.325,0.981-0.796,1.487c-0.738,0.8-1.77,1.196-3.096,1.196c-1.094,0-2.061-0.335-2.895-1.008
			c-0.841-0.677-1.258-1.774-1.258-3.294c0-1.425,0.379-2.519,1.131-3.281c0.759-0.759,1.736-1.141,2.943-1.141
			c0.718,0,1.36,0.13,1.934,0.386c0.574,0.256,1.049,0.663,1.422,1.22c0.338,0.485,0.557,1.056,0.656,1.699
			C134.984,18.66,135.008,19.203,134.998,19.914z M167.064,26.019c-0.769,0.359-1.466,0.615-2.088,0.762
			c-0.625,0.147-1.298,0.219-2.023,0.219c-0.824,0-1.551-0.106-2.183-0.311c-0.632-0.208-1.172-0.506-1.616-0.888
			c-0.448-0.386-0.758-0.796-0.929-1.23c-0.174-0.431-0.26-1.059-0.26-1.883v-6.311h-1.989v-2.549
			c0.707-0.229,1.312-0.557,1.818-0.987c0.502-0.427,0.909-0.943,1.213-1.544c0.304-0.601,0.516-1.367,0.629-2.293h2.559v4.548
			h4.271v2.826h-4.271v4.613c0,1.046,0.055,1.715,0.167,2.009c0.109,0.297,0.314,0.536,0.618,0.711
			c0.396,0.243,0.851,0.359,1.363,0.359c0.912,0,1.818-0.297,2.72-0.888V26.019z M203.32,21.422c-2.447,3.175-4.521,4.76-6.216,4.76
			c-1.046,0-1.934-0.964-2.662-2.901c-0.485-1.777-0.967-3.55-1.452-5.324c-0.54-1.938-1.118-2.908-1.736-2.908
			c-0.133,0-0.602,0.284-1.408,0.851l-0.847-1.094c0.885-0.776,1.76-1.558,2.621-2.337c1.182-1.022,2.071-1.558,2.662-1.613
			c1.398-0.137,2.259,0.82,2.583,2.864c0.349,2.204,0.591,3.578,0.725,4.114c0.406,1.828,0.847,2.741,1.333,2.741
			c0.372,0,0.94-0.588,1.692-1.77c0.755-1.186,1.159-2.084,1.213-2.706c0.106-1.022-0.297-1.528-1.213-1.528
			c-0.427,0-0.871,0.089-1.329,0.28c0.888-2.881,2.583-4.278,5.085-4.196c1.852,0.051,2.727,1.251,2.618,3.588
			C206.909,15.992,205.685,18.388,203.32,21.422z"/>
		<path fill="#FFFFFF" d="M123.099,16.408c0.301-0.185,0.451-0.509,0.451-0.974c0-0.519-0.198-0.865-0.598-1.029
			c-0.342-0.116-0.783-0.174-1.312-0.174h-2.423v2.454h2.703C122.402,16.685,122.795,16.592,123.099,16.408z"/>
		<path fill="#FFFFFF" d="M130.915,16.752c-0.55,0-0.981,0.157-1.285,0.468c-0.304,0.314-0.492,0.742-0.574,1.275h3.708
			c-0.038-0.571-0.229-1.005-0.571-1.299C131.848,16.899,131.421,16.752,130.915,16.752z"/>
		<path fill="#FFFFFF" d="M123.068,18.713c-0.267-0.12-0.636-0.185-1.111-0.188h-2.741v2.966h2.7c0.485,0,0.861-0.065,1.128-0.195
			c0.489-0.243,0.731-0.707,0.731-1.391C123.776,19.328,123.54,18.929,123.068,18.713z"/>
	</g>
	<g>
		<path fill="#8EF6E4" d="M93.784,53.748c-0.403-0.263-0.899-0.489-1.469-0.67c-0.564-0.181-1.203-0.349-1.897-0.499
			c-0.55-0.126-0.95-0.226-1.189-0.291c-0.232-0.065-0.465-0.154-0.69-0.266c-0.219-0.109-0.39-0.239-0.513-0.39
			c-0.116-0.14-0.171-0.304-0.171-0.499c0-0.321,0.174-0.591,0.533-0.824c0.369-0.246,0.872-0.366,1.487-0.366
			c0.663,0,1.145,0.109,1.435,0.328c0.294,0.226,0.554,0.547,0.769,0.953c0.184,0.318,0.352,0.54,0.513,0.684
			c0.171,0.15,0.421,0.229,0.738,0.229c0.352,0,0.646-0.123,0.882-0.366c0.236-0.246,0.352-0.523,0.352-0.83
			c0-0.318-0.089-0.649-0.267-0.981c-0.178-0.328-0.458-0.642-0.837-0.936c-0.373-0.294-0.851-0.533-1.415-0.707
			c-0.564-0.174-1.237-0.263-2.006-0.263c-0.96,0-1.804,0.133-2.519,0.396c-0.721,0.267-1.282,0.656-1.668,1.159
			c-0.386,0.502-0.581,1.087-0.581,1.736c0,0.68,0.188,1.258,0.557,1.719c0.362,0.455,0.858,0.82,1.473,1.08
			c0.601,0.256,1.36,0.482,2.252,0.673c0.653,0.137,1.182,0.27,1.576,0.393c0.372,0.116,0.68,0.284,0.916,0.502
			c0.222,0.212,0.328,0.475,0.328,0.817c0,0.427-0.205,0.779-0.632,1.07c-0.441,0.301-1.022,0.451-1.733,0.451
			c-0.516,0-0.933-0.075-1.244-0.222c-0.311-0.147-0.554-0.335-0.721-0.557c-0.174-0.232-0.342-0.526-0.492-0.875
			c-0.14-0.318-0.308-0.567-0.506-0.735c-0.205-0.174-0.461-0.263-0.755-0.263c-0.359,0-0.66,0.113-0.895,0.335
			c-0.239,0.222-0.359,0.496-0.359,0.81c0,0.502,0.185,1.025,0.55,1.552c0.359,0.519,0.837,0.943,1.412,1.254
			c0.81,0.427,1.842,0.646,3.076,0.646c1.029,0,1.931-0.161,2.683-0.475c0.762-0.314,1.35-0.759,1.743-1.323
			c0.4-0.564,0.601-1.21,0.601-1.917c0-0.588-0.116-1.097-0.349-1.51C94.519,54.36,94.194,54.015,93.784,53.748z"/>
		<path fill="#8EF6E4" d="M0,36v36h216V36H0z M128.502,48.816h4.767V50.2h-4.767V48.816z M21.976,50.952l-0.209,2.693h-2.761v9.356
			h-3.486v-9.356h-1.862v-2.693h1.862v-1.808c0-0.796,0.021-2.026,0.598-2.792c0.612-0.806,1.449-1.353,2.887-1.353
			c2.348,0,3.339,0.335,3.339,0.335l-0.468,2.758c0,0-0.772-0.226-1.497-0.226c-0.724,0-1.374,0.26-1.374,0.984v2.102H21.976z
			 M48.963,61.526h-3.509V50.297h3.509V61.526z M47.118,48.893h-0.024c-1.268,0-2.091-0.858-2.091-1.944
			c0-1.111,0.847-1.951,2.143-1.951c1.292,0,2.088,0.841,2.115,1.948C49.26,48.032,48.437,48.893,47.118,48.893z M63.001,61.526
			h-3.978v-5.809c0-1.521-0.622-2.56-1.992-2.56c-1.046,0-1.627,0.701-1.9,1.377c-0.099,0.239-0.085,0.578-0.085,0.916v6.076h-3.94
			c0,0,0.051-10.293,0-11.229h3.94v1.763c0.232-0.769,1.493-1.869,3.503-1.869c2.495,0,4.453,1.613,4.453,5.092V61.526z
			 M94.022,63.128c-0.851,0-1.651-0.215-2.355-0.591c-0.509,0.096-1.036,0.143-1.572,0.143c-4.74,0-8.585-3.841-8.585-8.585
			c0-0.591,0.058-1.169,0.174-1.726c-0.434-0.742-0.687-1.599-0.687-2.519c0-2.751,2.232-4.979,4.983-4.979
			c0.971,0,1.88,0.28,2.648,0.766c0.479-0.085,0.967-0.126,1.466-0.126c4.743,0,8.585,3.841,8.585,8.585
			c0,0.632-0.068,1.247-0.198,1.842c0.332,0.666,0.52,1.418,0.52,2.211C99.002,60.9,96.77,63.128,94.022,63.128z M125.627,57.838
			c-0.209,0.349-0.472,0.639-0.786,0.875c-0.355,0.273-0.772,0.458-1.258,0.56c-0.482,0.099-1.005,0.15-1.572,0.15h-5.013V48.296
			h5.376c1.357,0.021,2.317,0.417,2.884,1.186c0.338,0.475,0.509,1.039,0.509,1.699c0,0.68-0.171,1.227-0.512,1.637
			c-0.195,0.232-0.475,0.444-0.851,0.636c0.567,0.205,0.995,0.533,1.285,0.981c0.29,0.448,0.434,0.991,0.434,1.63
			C126.123,56.724,125.959,57.315,125.627,57.838z M134.998,55.914h-5.991c0.034,0.824,0.318,1.405,0.861,1.736
			c0.328,0.205,0.721,0.308,1.186,0.308c0.485,0,0.885-0.123,1.189-0.376c0.171-0.133,0.318-0.325,0.444-0.564h2.198
			c-0.058,0.485-0.325,0.981-0.796,1.487c-0.738,0.8-1.77,1.196-3.096,1.196c-1.094,0-2.061-0.335-2.895-1.008
			c-0.841-0.677-1.258-1.774-1.258-3.294c0-1.425,0.379-2.519,1.131-3.281c0.759-0.759,1.736-1.141,2.943-1.141
			c0.718,0,1.36,0.13,1.934,0.386c0.574,0.256,1.049,0.663,1.422,1.22c0.338,0.485,0.557,1.056,0.656,1.699
			C134.984,54.66,135.008,55.203,134.998,55.914z M167.064,62.019c-0.769,0.359-1.466,0.615-2.088,0.762
			c-0.625,0.147-1.298,0.219-2.023,0.219c-0.824,0-1.551-0.106-2.183-0.311c-0.632-0.208-1.172-0.506-1.616-0.888
			c-0.448-0.386-0.758-0.796-0.929-1.23c-0.174-0.431-0.26-1.059-0.26-1.883v-6.311h-1.989v-2.549
			c0.707-0.229,1.312-0.557,1.818-0.987c0.502-0.427,0.909-0.943,1.213-1.544c0.304-0.601,0.516-1.367,0.629-2.293h2.559v4.548
			h4.271v2.826h-4.271v4.613c0,1.046,0.055,1.715,0.167,2.009c0.109,0.297,0.314,0.536,0.618,0.711
			c0.396,0.243,0.851,0.359,1.363,0.359c0.912,0,1.818-0.297,2.72-0.888V62.019z M203.32,57.422c-2.447,3.175-4.521,4.76-6.216,4.76
			c-1.046,0-1.934-0.964-2.662-2.901c-0.485-1.777-0.967-3.55-1.452-5.324c-0.54-1.938-1.118-2.908-1.736-2.908
			c-0.133,0-0.602,0.284-1.408,0.851l-0.847-1.094c0.885-0.776,1.76-1.558,2.621-2.337c1.182-1.022,2.071-1.558,2.662-1.613
			c1.398-0.137,2.259,0.82,2.583,2.864c0.349,2.204,0.591,3.578,0.725,4.114c0.406,1.828,0.847,2.741,1.333,2.741
			c0.372,0,0.94-0.588,1.692-1.77c0.755-1.186,1.159-2.084,1.213-2.706c0.106-1.022-0.297-1.528-1.213-1.528
			c-0.427,0-0.871,0.089-1.329,0.28c0.888-2.881,2.583-4.278,5.085-4.196c1.852,0.051,2.727,1.251,2.618,3.588
			C206.909,51.992,205.685,54.388,203.32,57.422z"/>
		<path fill="#8EF6E4" d="M123.099,52.408c0.301-0.185,0.451-0.509,0.451-0.974c0-0.519-0.198-0.865-0.598-1.029
			c-0.342-0.116-0.783-0.174-1.312-0.174h-2.423v2.454h2.703C122.402,52.685,122.795,52.592,123.099,52.408z"/>
		<path fill="#8EF6E4" d="M130.915,52.752c-0.55,0-0.981,0.157-1.285,0.468c-0.304,0.314-0.492,0.742-0.574,1.275h3.708
			c-0.038-0.571-0.229-1.005-0.571-1.299C131.848,52.899,131.421,52.752,130.915,52.752z"/>
		<path fill="#8EF6E4" d="M123.068,54.713c-0.267-0.12-0.636-0.185-1.111-0.188h-2.741v2.966h2.7c0.485,0,0.861-0.065,1.128-0.195
			c0.489-0.243,0.731-0.707,0.731-1.391C123.776,55.328,123.54,54.929,123.068,54.713z"/>
	</g>
</g>
<g id="Guides">
</g>
</svg>
