<?xml version="1.0" encoding="utf-8"?>
<!-- Generator: Adobe Illustrator 17.0.0, SVG Export Plug-In . SVG Version: 6.00 Build 0)  -->
<!DOCTYPE svg PUBLIC "-//W3C//DTD SVG 1.1//EN" "http://www.w3.org/Graphics/SVG/1.1/DTD/svg11.dtd">
<svg version="1.1" id="Layer_1" xmlns="http://www.w3.org/2000/svg" xmlns:xlink="http://www.w3.org/1999/xlink" x="0px" y="0px"
	 width="460px" height="460px" viewBox="0 -30 460 460" enable-background="new 0 -30 460 460" xml:space="preserve">
<path fill="#1A4759" d="M418.157,223.913c0.999-7.926,1.515-15.929,1.515-23.907C419.672,95.42,334.585,10.333,230,10.333
	c-41.561,0-81.02,13.195-114.111,38.16c-30.18,22.768-53.21,54.594-65.398,90.172l-5.22,18.227
	c-3.279,14.088-4.943,28.54-4.943,43.114c0,7.979,0.517,15.981,1.515,23.907l3.212,18.227c5.465,24.058,15.61,46.843,29.822,67.021
	l11.803,15.085l2.8,3.142c33.457,36.88,80.078,59.107,129.627,61.954l9.702,0.324c0.396,0.007,8.524-0.145,8.524-0.145
	c50.895-1.965,98.878-24.31,133.185-62.134l2.801-3.142l11.803-15.085c14.212-20.177,24.357-42.962,29.821-67.021
	c0,0,1.563-7.511,1.568-7.538L418.157,223.913z M126.867,63.043C156.77,40.483,192.433,28.559,230,28.559
	c94.535,0,171.445,76.911,171.445,171.446c0,7.983-0.558,15.996-1.662,23.907h-162.45v-85.248H69.875
	C81.333,108.894,101.253,82.365,126.867,63.043z M311.458,309.16H144.982v-67.021h74.125h92.352L311.458,309.16L311.458,309.16z
	 M58.554,200.005c0-14.61,1.84-29.082,5.477-43.114h155.076v67.021H60.216C59.112,216.002,58.554,207.989,58.554,200.005z
	 M63.78,242.139h62.976v67.021H97.788C81.596,289.566,69.978,266.641,63.78,242.139z M115.259,327.386h103.848v43.707
	C180.486,368.636,143.884,353.15,115.259,327.386z M237.333,371.296v-43.909h107.413
	C315.225,353.979,277.289,369.588,237.333,371.296z M362.212,309.16h-32.527v-67.021h66.535
	C390.021,266.642,378.403,289.567,362.212,309.16z"/>
</svg>
