<?xml version="1.0" encoding="utf-8"?>
<!-- Generator: Adobe Illustrator 17.0.0, SVG Export Plug-In . SVG Version: 6.00 Build 0)  -->
<!DOCTYPE svg PUBLIC "-//W3C//DTD SVG 1.1//EN" "http://www.w3.org/Graphics/SVG/1.1/DTD/svg11.dtd">
<svg version="1.1" id="Layer_1" xmlns="http://www.w3.org/2000/svg" xmlns:xlink="http://www.w3.org/1999/xlink" x="0px" y="0px"
	 width="460px" height="460px" viewBox="0 -30 460 460" enable-background="new 0 -30 460 460" xml:space="preserve">
<g>
	<path fill="#1A4759" d="M49.76,185.2c-19.283,22.353-23.353,31.808-16.751,38.912c6.602,7.107,16.331,3.734,40.03-13.867
		l64.51-47.902l-58.293,66.415c-18.388,20.953-23.001,32.098-16.454,39.761c6.551,7.666,18.288,4.841,41.838-10.054l191.547-121.124
		L219.6,214.856c-18.195,18.418-26.199,29.283-19.43,37.541c6.762,8.258,18.988,2.551,40.63-11.666l86.494-56.83
		c10.196-6.7,16.315-9.256,19.636-10.225c-0.957,3.321-3.496,9.455-10.155,19.672l-41.156,63.121
		c-8.968,13.759-19.699,33.24-9.368,43.546c2.996,2.993,6.762,4.209,10.934,4.209c10.206,0,22.842-7.28,32.594-13.668l61.541-40.306
		c11.27-7.381,19.872-12.287,26.187-15.485c-6.651,11.056-12.846,22.576-14.556,28.228l-3.202,10.592
		c-1.417,4.697,1.24,9.65,5.937,11.069c4.69,1.417,9.65-1.245,11.066-5.935l3.197-10.586c1.183-3.913,9.183-19.126,19.523-35.007
		c6.152-9.446,3.734-15.129,0.621-18.233c-3.767-3.762-10.795-10.749-58.504,20.502l-61.541,40.306
		c-10.268,6.724-16.409,9.259-19.718,10.206c0.939-3.308,3.463-9.455,10.165-19.739l41.156-63.121
		c8.971-13.759,19.701-33.242,9.381-43.525c-10.328-10.294-29.767,0.516-43.493,9.536l-79.023,51.924l72.011-72.884
		c20.475-20.727,25.338-30.266,19.27-37.805c-6.065-7.536-16.421-4.83-41.05,10.741L95.147,243.452
		c-3.897,2.464-7.177,4.396-9.93,5.911c1.924-2.484,4.345-5.424,7.384-8.887l63.772-72.656
		c19.492-22.209,23.663-31.599,17.169-38.646c-6.502-7.047-16.203-3.655-39.916,13.962L66.52,192.965l32.635-37.824
		c35.224-40.817,28.429-50.108,25.528-54.076c-2.834-3.867-8.676-7.409-20.531-2.35c-18.179,7.774-41.2,16.722-50.269,19.536
		l-17.172,5.327c-4.684,1.451-7.306,6.426-5.851,11.11c1.449,4.684,6.417,7.289,11.11,5.851l17.178-5.327
		c8.724-2.708,28.437-10.285,46.103-17.677c-3.417,5.743-9.419,14.277-19.538,26.003L49.76,185.2z"/>
</g>
</svg>
