<?xml version="1.0" encoding="utf-8"?>
<!-- Generator: Adobe Illustrator 17.0.2, SVG Export Plug-In . SVG Version: 6.00 Build 0)  -->
<!DOCTYPE svg PUBLIC "-//W3C//DTD SVG 1.1//EN" "http://www.w3.org/Graphics/SVG/1.1/DTD/svg11.dtd">
<svg version="1.1" id="Layer_1" xmlns="http://www.w3.org/2000/svg" xmlns:xlink="http://www.w3.org/1999/xlink" x="0px" y="0px"
	 width="400px" height="400px" viewBox="0 0 400 400" enable-background="new 0 0 400 400" xml:space="preserve">
<g>
	<path fill="#FFFFFF" d="M200.286,389.054L36.175,294.307V104.809l164.112-94.75l164.111,94.75v189.497L200.286,389.054z
		 M59.863,280.628l140.423,81.068l140.423-81.068v-162.14L200.286,37.417L59.863,118.488V280.628z"/>
	<path fill="#FFFFFF" d="M276.003,213.643L209.295,70.359h-17.492l-46.949,102.727c-3.291,7.179-11.332,18.528-2.16,24.564
		c7.365,4.844,18.311,2.348,26.687,3.11l0.004,0.007c-1.895,0.449-54.147,12.398-54.147,12.398
		c-4.768,1.32-22.352,3.771-20.234,11.93c0.526,2.018,2.398,2.61,4.29,2.877c6.346,0.908,13.164-0.172,19.466-0.889L95.177,277.65
		l16.388,9.763l28.54-61.98l13.032-0.456c11.77-0.277,102.627-2.751,118.555-3.797c9.587-0.626,20.053-1.709,29.573,0.233
		c-15.48,4.074-31.426,6.49-47.079,9.793c-10.252,2.156-20.951,4.104-30.705,8.083c-2.212,0.903-4.521,1.965-6.276,3.627
		c-1.862,1.776-3.148,5.643-0.023,7.037c5.932,2.646,14.661,1.303,20.942,1.026c8.75-0.375,17.478-1.094,26.189-1.916v0.005
		c2.803-0.27,6.527-0.51,8.897,4.295l16.982,34.523l16.491-7.738l-13.416-27.332c-0.568-1.209-1.178-2.482-1.857-3.778l-0.191-0.396
		c0,0-0.046-0.037-0.046-0.042c-2.472-4.609-5.908-9-11.933-8.411c-0.005,0-0.009-0.009-0.009-0.009
		c-11.863,1.222-33.601,3.163-47.126,3.755c18.712-5.471,38.15-8.469,57.22-12.394c5.726-1.185,11.595-2.242,17.159-4.107
		c1.878-0.631,4.076-1.411,5.147-3.212l0.4-3.299C309.734,213.552,297.103,212.493,276.003,213.643z M200.37,95.244l56.81,119.218
		c-11.225,0.315-132.913,4.363-134.063,4.377c0,0,45.556-9.854,47.964-10.476c3.995-0.873,16.137-3.927,11.211-10.654
		c-3.609-4.926-14.072-4.365-19.256-4.572c-0.005,0-0.01-0.005-0.023-0.005c-4.414-0.245-4.251-5.145-2.766-8.469L200.37,95.244
		L200.37,95.244z"/>
</g>
</svg>
