<?xml version="1.0" encoding="utf-8"?>
<!-- Generator: Adobe Illustrator 17.0.2, SVG Export Plug-In . SVG Version: 6.00 Build 0)  -->
<!DOCTYPE svg PUBLIC "-//W3C//DTD SVG 1.1//EN" "http://www.w3.org/Graphics/SVG/1.1/DTD/svg11.dtd">
<svg version="1.1" id="Layer_1" xmlns="http://www.w3.org/2000/svg" xmlns:xlink="http://www.w3.org/1999/xlink" x="0px" y="0px"
	 width="400px" height="400px" viewBox="0 0 400 400" enable-background="new 0 0 400 400" xml:space="preserve">
<path fill="#1A4759" d="M388.157,220.763c0.999-7.926,1.515-15.929,1.515-23.907C389.672,92.27,304.585,7.183,200,7.183
	c-41.561,0-81.02,13.195-114.111,38.16c-30.18,22.768-53.21,54.594-65.398,90.172l-5.22,18.227
	c-3.279,14.088-4.943,28.54-4.943,43.114c0,7.979,0.517,15.981,1.515,23.907l3.212,18.227c5.465,24.058,15.61,46.843,29.822,67.021
	l11.803,15.085l2.8,3.142c33.457,36.88,80.078,59.107,129.627,61.954l9.702,0.324c0.396,0.007,8.524-0.145,8.524-0.145
	c50.895-1.965,98.878-24.31,133.185-62.134l2.801-3.142l11.803-15.085c14.212-20.177,24.357-42.962,29.821-67.021
	c0,0,1.563-7.511,1.568-7.538L388.157,220.763z M96.867,59.893C126.77,37.333,162.433,25.409,200,25.409
	c94.535,0,171.445,76.911,171.445,171.446c0,7.983-0.558,15.996-1.662,23.907h-162.45v-85.248H39.875
	C51.333,105.744,71.253,79.215,96.867,59.893z M281.458,306.01H114.982v-67.021h74.125h92.352V306.01z M28.554,196.855
	c0-14.61,1.84-29.082,5.477-43.114h155.076v67.021H30.216C29.112,212.852,28.554,204.839,28.554,196.855z M33.78,238.989h62.976
	v67.021H67.788C51.596,286.416,39.978,263.491,33.78,238.989z M85.259,324.236h103.848v43.707
	C150.486,365.486,113.884,350,85.259,324.236z M207.333,368.146v-43.909h107.413C285.225,350.829,247.289,366.438,207.333,368.146z
	 M332.212,306.01h-32.527v-67.021h66.535C360.021,263.492,348.403,286.417,332.212,306.01z"/>
</svg>
