<?xml version="1.0" encoding="utf-8"?>
<!-- Generator: Adobe Illustrator 17.0.2, SVG Export Plug-In . SVG Version: 6.00 Build 0)  -->
<!DOCTYPE svg PUBLIC "-//W3C//DTD SVG 1.1//EN" "http://www.w3.org/Graphics/SVG/1.1/DTD/svg11.dtd">
<svg version="1.1" id="Layer_1" xmlns="http://www.w3.org/2000/svg" xmlns:xlink="http://www.w3.org/1999/xlink" x="0px" y="0px"
	 width="400px" height="400px" viewBox="0 0 400 400" enable-background="new 0 0 400 400" xml:space="preserve">
<g>
	<path fill="#1A4759" d="M22.698,186.929C4.351,208.197,0.478,217.193,6.76,223.952c6.282,6.762,15.538,3.553,38.087-13.194
		l61.379-45.577l-55.464,63.192c-17.496,19.936-21.885,30.54-15.655,37.831c6.233,7.294,17.4,4.606,39.807-9.566l182.25-115.245
		l-72.869,73.752c-17.312,17.524-24.927,27.862-18.487,35.719c6.434,7.857,18.066,2.427,38.658-11.1l82.296-54.072
		c9.701-6.375,15.523-8.807,18.683-9.729c-0.911,3.16-3.326,8.996-9.662,18.717l-39.159,60.057
		c-8.533,13.091-18.743,31.627-8.913,41.433c2.851,2.848,6.434,4.005,10.403,4.005c9.711,0,21.733-6.927,31.012-13.005l58.554-38.35
		c10.723-7.023,18.908-11.691,24.916-14.733c-6.328,10.519-12.223,21.48-13.85,26.858l-3.047,10.078
		c-1.348,4.469,1.18,9.182,5.649,10.532c4.462,1.348,9.182-1.185,10.529-5.647l3.042-10.072c1.126-3.723,8.737-18.198,18.575-33.308
		c5.853-8.988,3.553-14.395,0.591-17.348c-3.584-3.579-10.271-10.227-55.665,19.507l-58.554,38.35
		c-9.77,6.398-15.613,8.81-18.761,9.711c0.893-3.147,3.295-8.996,9.672-18.781l39.159-60.057
		c8.536-13.091,18.745-31.629,8.926-41.413c-9.827-9.794-28.322,0.491-41.382,9.073l-75.188,49.404l68.516-69.347
		c19.481-19.721,24.108-28.797,18.335-35.97c-5.771-7.17-15.624-4.596-39.058,10.22L65.882,242.354
		c-3.708,2.344-6.829,4.183-9.448,5.624c1.831-2.363,4.134-5.161,7.026-8.456l60.677-69.13
		c18.546-21.131,22.515-30.065,16.336-36.77c-6.186-6.705-15.417-3.478-37.979,13.284l-63.85,47.411l31.051-35.988
		c33.514-38.836,27.049-47.676,24.289-51.451c-2.696-3.679-8.255-7.049-19.535-2.236c-17.297,7.397-39.2,15.91-47.829,18.588
		l-16.339,5.068c-4.457,1.381-6.951,6.114-5.567,10.571c1.379,4.457,6.106,6.935,10.571,5.567l16.344-5.068
		c8.301-2.577,27.057-9.786,43.865-16.819c-3.251,5.464-8.962,13.584-18.59,24.741L22.698,186.929z"/>
</g>
</svg>
