<?xml version="1.0" encoding="utf-8"?>
<!-- Generator: Adobe Illustrator 17.0.2, SVG Export Plug-In . SVG Version: 6.00 Build 0)  -->
<!DOCTYPE svg PUBLIC "-//W3C//DTD SVG 1.1//EN" "http://www.w3.org/Graphics/SVG/1.1/DTD/svg11.dtd">
<svg version="1.1" id="Layer_1" xmlns="http://www.w3.org/2000/svg" xmlns:xlink="http://www.w3.org/1999/xlink" x="0px" y="0px"
	 width="400px" height="400px" viewBox="0 0 400 400" enable-background="new 0 0 400 400" xml:space="preserve">
<g>
	<path fill="#1A4759" d="M238.836,285.252c-1.177,6.632,6.504,11.539,12.028,7.678c3.077-2.151,3.26-5.671,3.957-9.043
		c0.881-4.264,1.96-8.489,3.29-12.635c3.637-11.335,9.364-21.56,16.505-31.04c6.248-8.295,13.098-16.184,17.929-25.443
		c6.257-11.991,8.496-25.395,8.496-38.822c0-51.439-41.292-95.491-92.657-98.707c-51.364-3.216-97.96,35.201-104.376,86.319
		c-1.708,13.61-0.961,28.082,3.429,41.142c3.482,10.358,9.583,19.237,16.24,27.786c6.347,8.15,12.647,16.273,17.215,25.595
		c2.733,5.578,4.882,11.428,6.544,17.41c2.123,7.642,2.641,15.675,4.914,23.241c3.536,11.77,12.919,20.189,25.523,20.189
		c7.838,0,15.676,0,23.514,0c12.409,0,25.346-1.813,37.565,0.63c-13.747,4.683-29.985,3.481-44.307,4.158
		c-8.88,0.42-32.503-0.743-32.978,12.572c-0.343,9.62,12.407,11.796,19.538,12.926c15.654,2.435,31.564,2.486,47.28,4.362
		c-12.642,1.602-25.43,1.648-38.118,2.727c-7.038,0.633-27.165,2.201-21.664,14.633l-0.163-0.416
		c2.671,7.337,15.209,8.077,21.575,9.357c9.888,1.989,21.019,2.96,30.309,7.056c4.53,9.561,17.93-0.981,10.097-9.031
		c-7.345-7.169-22.267-7.773-31.812-9.553c10.229-0.667,20.497-1.019,30.68-2.257c7.485-0.953,22.072-2.581,22.004-13.005
		l-0.039,0.692c1.414-11.851-18.556-12.315-25.989-13.044c-13.608-1.333-27.338-1.716-40.876-3.71
		c11.318-1.003,22.707-1.015,34.048-1.645c9.723-0.54,21.603-0.666,30.132-5.943c4.056-2.51,7.006-7.03,6.363-11.9
		c-1.149-10.545-14.952-12.02-23.149-12.741c-17.981-1.582-35.965-1.31-54.01-1.31c-11.116,0-11.412-13.2-13.009-21.317
		c-2.552-12.966-6.781-25.592-13.374-37.08c-10.646-18.551-28.028-32.712-31.716-54.728c-8.841-52.777,35.087-101.599,88.584-97.639
		c42.359,3.135,76.442,39.213,77.227,81.665c0.204,11.051-1.315,22.256-6.262,32.244c-3.963,8.001-9.773,14.849-15.195,21.875
		C251.024,245.478,242.599,264.051,238.836,285.252C238.091,289.45,244.446,253.646,238.836,285.252z M219.871,383.061
		c0.026-0.196,0.06-0.388,0.112-0.568C219.936,382.682,219.901,382.872,219.871,383.061z M179.14,371.025
		c-0.019,0.011-0.03,0.016-0.03,0.016C179.111,371.041,179.132,371.03,179.14,371.025z M238.926,352.869
		c-0.002-0.055,0.002-0.109,0.011-0.163l-0.01,0.185C238.926,352.884,238.925,352.877,238.926,352.869z M241.812,318.939
		c0.002-0.056,0,0.058,0,0.054C241.811,318.974,241.811,318.956,241.812,318.939z M242.107,317.999
		C242.193,317.876,242.209,317.901,242.107,317.999L242.107,317.999z"/>
	<path fill="#1A4759" d="M202.138,56.075c4.265,0,7.721-3.457,7.721-7.721V16c0-9.958-15.442-9.958-15.442,0v32.353
		C194.417,52.618,197.874,56.075,202.138,56.075z"/>
	<path fill="#1A4759" d="M105.774,90.249c7.04,7.043,17.96-3.878,10.919-10.919L93.816,56.452
		c-7.04-7.043-17.96,3.878-10.919,10.919L105.774,90.249z"/>
	<path fill="#1A4759" d="M72.719,167.11H40.366c-9.958,0-9.958,15.442,0,15.442h32.354C82.677,182.552,82.677,167.11,72.719,167.11z
		"/>
	<path fill="#1A4759" d="M103.695,260.274l-22.877,22.878c-7.041,7.042,3.877,17.96,10.919,10.92l22.877-22.878
		C121.655,264.152,110.737,253.235,103.695,260.274z"/>
	<path fill="#1A4759" d="M295.559,262.354c-7.041-7.041-17.959,3.879-10.918,10.92l22.878,22.877
		c7.041,7.041,17.959-3.879,10.918-10.92L295.559,262.354z"/>
	<path fill="#1A4759" d="M360.969,170.051h-32.354c-9.958,0-9.958,15.442,0,15.442h32.354
		C370.926,185.494,370.926,170.051,360.969,170.051z"/>
	<path fill="#1A4759" d="M292.18,94.59c1.976,0,3.952-0.754,5.46-2.262l22.878-22.877c7.041-7.042-3.878-17.959-10.92-10.919
		L286.72,81.409C281.958,86.171,285.442,94.59,292.18,94.59z"/>
</g>
</svg>
