<?xml version="1.0" encoding="utf-8"?>
<!-- Generator: Adobe Illustrator 17.0.2, SVG Export Plug-In . SVG Version: 6.00 Build 0)  -->
<!DOCTYPE svg PUBLIC "-//W3C//DTD SVG 1.1//EN" "http://www.w3.org/Graphics/SVG/1.1/DTD/svg11.dtd">
<svg version="1.1" id="Layer_1" xmlns="http://www.w3.org/2000/svg" xmlns:xlink="http://www.w3.org/1999/xlink" x="0px" y="0px"
	 width="800px" height="800px" viewBox="0 0 800 800" enable-background="new 0 0 800 800" xml:space="preserve">
<g>
	<path fill="#1A4759" d="M400.024,47.206L96.328,222.545l-1.096,0.634v351.948l304.793,175.972L703.721,575.76l1.096-0.634V223.179
		L400.024,47.206z M656.51,251.07v296.169L400.024,695.317L143.539,547.238V251.07l256.486-148.076L656.51,251.07z"/>
	<path fill="#1A4759" d="M214.531,377.199c-20.028,23.215-24.255,33.034-17.398,40.413c6.857,7.381,16.961,3.878,41.574-14.402
		l66.999-49.75l-60.542,68.978c-19.097,21.761-23.889,33.336-17.088,41.295c6.804,7.962,18.993,5.028,43.451-10.442l198.937-125.796
		L390.923,408c-18.897,19.128-27.209,30.413-20.18,38.99c7.023,8.576,19.72,2.649,42.197-12.116l89.831-59.023
		c10.589-6.959,16.944-9.614,20.394-10.62c-0.995,3.45-3.63,9.819-10.546,20.431l-42.744,65.556
		c-9.315,14.289-20.459,34.523-9.729,45.227c3.112,3.109,7.023,4.371,11.355,4.371c10.6,0,23.722-7.562,33.852-14.196l63.916-41.862
		c11.705-7.666,20.639-12.762,27.198-16.082c-6.908,11.482-13.342,23.446-15.118,29.317l-3.326,11
		c-1.471,4.879,1.288,10.022,6.167,11.496c4.87,1.471,10.022-1.294,11.493-6.164l3.32-10.995
		c1.229-4.064,9.537-19.864,20.276-36.357c6.389-9.811,3.878-15.713,0.645-18.937c-3.912-3.906-11.212-11.164-60.762,21.293
		l-63.916,41.862c-10.665,6.984-17.043,9.616-20.478,10.6c0.975-3.436,3.596-9.819,10.558-20.501l42.744-65.556
		c9.318-14.289,20.462-34.525,9.743-45.204c-10.727-10.69-30.915,0.535-45.17,9.904l-82.072,53.927l74.789-75.697
		c21.265-21.527,26.315-31.434,20.013-39.263c-6.299-7.827-17.054-5.017-42.634,11.155L261.669,437.7
		c-4.047,2.559-7.455,4.566-10.313,6.138c1.998-2.579,4.512-5.634,7.669-9.23l66.232-75.46
		c20.245-23.066,24.576-32.817,17.832-40.137c-6.753-7.319-16.829-3.796-41.456,14.501l-69.696,51.751l33.894-39.283
		c36.583-42.392,29.526-52.042,26.513-56.162c-2.942-4.016-9.01-7.694-21.324-2.441c-18.88,8.075-42.789,17.367-52.208,20.29
		l-17.835,5.533c-4.865,1.508-7.587,6.674-6.076,11.539c1.505,4.865,6.666,7.57,11.539,6.076l17.84-5.533
		c9.061-2.813,29.534-10.682,47.882-18.359c-3.548,5.964-9.783,14.828-20.292,27.006L214.531,377.199z"/>
</g>
</svg>
