<?xml version="1.0" encoding="utf-8"?>
<!-- Generator: flash2svg, http://dissentgraphics.com/tools/flash2svg -->
<svg id="ICONSFINAL_Bulb" image-rendering="auto" baseProfile="basic" version="1.1" x="0px" y="0px" width="261" height="180" xmlns="http://www.w3.org/2000/svg" viewBox="0 0 261 180" xmlns:xlink="http://www.w3.org/1999/xlink">
  <defs/>
  <g id="Bulb1" overflow="visible">
    <g id="Bulb_3_11">
      <g id="element90">
        <path id="path102" fill="#FFF" d="M167.61,45.37 C168.76,44.22 168.76,42.34 167.61,41.18 166.45,40.04 164.58,40.04 163.42,41.18 L160.45,44.17 C159.29,45.32 159.29,47.19 160.45,48.35 Q161.32,49.21 162.54,49.21 C163.29,49.21 164.05,48.93 164.63,48.35 L167.61,45.37z"/>
      </g>
      <g id="element91">
        <path id="path103" fill="#FFF" d="M187.92,80.21 C187.92,78.58 186.59,77.26 184.96,77.26 L176.31,77.26 C174.68,77.26 173.36,78.58 173.36,80.21 173.36,81.84 174.68,83.17 176.31,83.17 L184.96,83.17 C186.59,83.17 187.92,81.84 187.92,80.21z"/>
      </g>
      <g id="element92">
        <path id="path104" fill="#FFF" d="M164.22,112.03 C163.06,110.87 161.19,110.87 160.03,112.03 158.88,113.18 158.88,115.06 160.03,116.21 L168.51,124.68 Q168.93,125.1 169.48,125.32 170.02,125.55 170.59,125.55 C171.35,125.55 172.11,125.25 172.68,124.68 173.84,123.52 173.84,121.65 172.68,120.49 L164.22,112.03z"/>
      </g>
      <g id="element93">
        <path id="path105" fill="#FFF" d="M95.09,116.4 L96.24,115.25 C97.39,114.1 97.39,112.22 96.24,111.07 95.08,109.91 93.21,109.91 92.05,111.07 L90.91,112.21 C89.75,113.37 89.75,115.24 90.91,116.4 Q91.8,117.27 93,117.27 C93.75,117.27 94.51,116.97 95.09,116.4z"/>
      </g>
      <g id="element94">
        <path id="path106" fill="#FFF" d="M76.21,76.15 C74.57,76.15 73.25,77.47 73.25,79.11 73.25,80.73 74.57,82.06 76.21,82.06 L80.6,82.06 C82.23,82.06 83.55,80.73 83.55,79.11 83.55,77.47 82.23,76.15 80.6,76.15 L76.21,76.15z"/>
      </g>
      <g id="element95">
        <path id="path107" fill="#FFF" d="M97,43.13 L96.9,43.03 C95.74,41.88 93.87,41.88 92.71,43.03 91.56,44.19 91.56,46.06 92.71,47.22 L92.81,47.32 Q93.7,48.19 94.91,48.19 C95.67,48.19 96.42,47.89 97,47.32 98.15,46.16 98.15,44.29 97,43.13z"/>
      </g>
      <g id="element96">
        <path id="path108" fill="#FFF" d="M132.04,20.94 C132.04,19.3 130.72,17.98 129.09,17.98 127.45,17.98 126.13,19.3 126.13,20.94 L126.13,31.8 Q126.13,33.03 127,33.88 127.86,34.75 129.09,34.75 C130.72,34.75 132.04,33.43 132.04,31.8 L132.04,20.94z"/>
      </g>
      <g id="element97">
        <path id="path109" fill="#FFF" d="M129.09,48.04 C146.45,48.04 160.57,62.16 160.57,79.52 160.57,88.98 157.45,92.97 153.52,98 149.54,103.09 145.03,108.86 142.91,120.81 Q142.7,122.01 143.4,123.01 144.1,124.02 145.3,124.23 C146.91,124.52 148.45,123.44 148.73,121.83 150.6,111.33 154.45,106.41 158.18,101.65 162.44,96.18 166.48,91.02 166.48,79.52 166.48,58.91 149.71,42.13 129.09,42.13 108.46,42.13 91.69,58.91 91.69,79.52 91.69,91.02 95.72,96.18 100,101.65 103.93,106.67 107.99,111.86 109.72,123.54 110.65,129.82 114.46,133.57 119.92,133.57 L132.46,133.57 C134.1,133.54 135.69,133.51 137.27,133.51 138.85,133.51 140.43,133.54 141.87,133.7 L142.5,133.8 C141.92,133.96 141.29,134.1 140.65,134.21 139.91,134.35 139.14,134.45 138.36,134.54 136.81,134.71 135.21,134.82 133.61,134.91 132,134.99 130.36,135.05 128.73,135.12 127.08,135.18 125.43,135.25 123.75,135.36 122.91,135.41 122.06,135.49 121.2,135.58 120.33,135.67 119.46,135.78 118.53,135.98 118.06,136.08 117.57,136.19 117.06,136.37 116.8,136.46 116.52,136.56 116.24,136.69 115.94,136.83 115.63,136.99 115.27,137.24 115.1,137.36 114.91,137.52 114.73,137.7 114.54,137.9 114.35,138.13 114.17,138.42 114.01,138.71 113.86,139.04 113.78,139.41 113.74,139.58 113.7,139.77 113.69,139.95 L113.68,140.14 C113.68,140.23 113.68,140.06 113.68,140.34 L113.79,141.04 C113.83,141.23 113.9,141.39 113.96,141.56 114.1,141.87 114.28,142.16 114.45,142.37 114.8,142.82 115.14,143.09 115.46,143.3 116.09,143.72 116.6,143.93 117.1,144.13 117.6,144.3 118.07,144.44 118.53,144.55 119.43,144.78 120.3,144.94 121.16,145.08 122.88,145.35 124.55,145.51 126.2,145.67 129.52,145.97 132.8,146.15 136.02,146.43 L138.05,146.61 C136.03,146.83 133.94,146.95 131.83,147.07 129.47,147.21 127.07,147.32 124.63,147.53 124.02,147.58 123.4,147.65 122.78,147.72 122.15,147.79 121.51,147.88 120.84,148.01 120.5,148.06 120.16,148.14 119.8,148.23 119.45,148.32 119.07,148.43 118.64,148.61 118.42,148.69 118.19,148.8 117.93,148.95 117.67,149.1 117.37,149.29 117.03,149.63 116.86,149.8 116.68,150.02 116.52,150.29 116.36,150.58 116.22,150.91 116.14,151.29 116.07,151.66 116.06,152.05 116.11,152.37 116.14,152.54 116.17,152.68 116.22,152.83 L116.36,153.22 C116.48,153.51 116.66,153.78 116.87,154.02 L117,154.17 117.23,154.38 117.34,154.47 C117.61,154.66 117.81,154.77 117.99,154.87 118.34,155.06 118.62,155.16 118.89,155.26 119.42,155.45 119.88,155.59 120.36,155.72 121.28,155.96 122.16,156.16 123.04,156.35 124.78,156.72 126.5,157.04 128.2,157.38 129.89,157.71 131.57,158.05 133.18,158.45 133.98,158.65 134.76,158.87 135.44,159.11 135.6,159.18 135.76,159.23 135.9,159.3 L135.91,159.3 C136.23,159.96 136.84,160.49 137.62,160.68 139.02,161.04 140.44,160.19 140.79,158.78 140.88,158.45 140.91,158.09 140.87,157.73 140.84,157.39 140.74,157.05 140.63,156.79 140.51,156.52 140.38,156.32 140.25,156.14 140.19,156.06 140.13,155.97 140.06,155.91 L139.89,155.72 C139.44,155.27 139.09,155.09 138.78,154.9 138.48,154.73 138.2,154.6 137.93,154.49 137.67,154.38 137.42,154.29 137.17,154.21 136.2,153.87 135.31,153.64 134.41,153.42 132.63,153.01 130.9,152.66 129.17,152.34 L128.68,152.25 C129.82,152.17 130.96,152.12 132.12,152.05 134.51,151.9 136.91,151.75 139.39,151.45 140.01,151.37 140.64,151.29 141.28,151.18 141.91,151.07 142.56,150.94 143.23,150.76 143.92,150.58 144.62,150.36 145.44,149.94 145.85,149.71 146.31,149.44 146.81,148.9 147.06,148.64 147.31,148.29 147.5,147.86 147.68,147.47 147.78,147 147.8,146.56 147.83,146.14 147.76,145.68 147.62,145.29 147.47,144.86 147.24,144.51 147.01,144.26 146.8,144.01 146.59,143.83 146.4,143.68 146.22,143.54 146.03,143.43 145.88,143.34 145.54,143.16 145.26,143.04 144.99,142.93 144.72,142.83 144.46,142.75 144.22,142.68 143.24,142.39 142.37,142.23 141.5,142.09 139.77,141.83 138.11,141.67 136.44,141.52 133.13,141.23 129.86,141.03 126.66,140.74 125.58,140.63 124.5,140.52 123.46,140.39 L124.07,140.35 C125.66,140.25 127.29,140.18 128.92,140.13 130.55,140.06 132.2,140.01 133.86,139.92 135.52,139.85 137.2,139.76 138.9,139.58 139.76,139.5 140.62,139.39 141.5,139.25 142.37,139.11 143.27,138.93 144.21,138.67 144.68,138.53 145.17,138.36 145.67,138.14 146.18,137.92 146.72,137.65 147.28,137.22 147.56,136.99 147.85,136.73 148.13,136.4 148.41,136.08 148.67,135.68 148.86,135.22 148.96,134.99 149.04,134.75 149.09,134.5 L149.14,134.31 149.21,133.64 149.21,133.39 C149.2,133.26 149.2,133.12 149.18,132.98 149.15,132.72 149.08,132.44 149,132.17 148.82,131.63 148.52,131.14 148.21,130.77 147.89,130.4 147.56,130.12 147.24,129.9 146.61,129.46 146.03,129.22 145.51,129.03 144.45,128.66 143.52,128.47 142.61,128.34 141.7,128.2 140.82,128.1 139.96,128.03 139.09,127.97 138.24,127.91 137.4,127.86 135.73,127.78 134.09,127.74 132.47,127.65 L119.92,127.65 C119.03,127.65 116.31,127.65 115.57,122.67 113.61,109.45 108.85,103.37 104.66,98 100.72,92.97 97.61,88.98 97.61,79.52 97.61,62.16 111.73,48.04 129.09,48.04z"/>
      </g>
      <animate attributeName="display" begin="0s" repeatCount="indefinite" dur="0.46s" keyTimes="0;1;1" values="none;inline;none" transform="matrix(1 0 0 1 -0.5 0.05)"/>
    </g>
    <g id="Bulb_3_10">
      <g id="element82">
        <path id="path94" fill="#FFF" d="M165.78,43.01 C164.62,41.86 162.75,41.87 161.59,43.01 L160.45,44.17 C159.29,45.32 159.29,47.19 160.45,48.35 Q161.32,49.21 162.54,49.21 C163.29,49.21 164.05,48.93 164.63,48.35 L165.78,47.2 C166.93,46.04 166.93,44.17 165.78,43.01z"/>
      </g>
      <g id="element83">
        <path id="path95" fill="#FFF" d="M190.14,80.21 C190.14,78.58 188.81,77.26 187.18,77.26 L176.31,77.26 C174.68,77.26 173.36,78.58 173.36,80.21 173.36,81.84 174.68,83.17 176.31,83.17 L187.18,83.17 C188.81,83.17 190.14,81.84 190.14,80.21z"/>
      </g>
      <g id="element84">
        <path id="path96" fill="#FFF" d="M164.22,112.03 C163.06,110.87 161.19,110.87 160.03,112.03 158.88,113.18 158.88,115.06 160.03,116.21 L166.68,122.85 Q167.54,123.72 168.76,123.72 C169.52,123.72 170.28,123.42 170.85,122.85 172.01,121.69 172.01,119.82 170.85,118.66 L164.22,112.03z"/>
      </g>
      <g id="element85">
        <path id="path97" fill="#FFF" d="M96.14,115.35 L96.24,115.25 C97.39,114.1 97.39,112.22 96.24,111.07 95.08,109.91 93.21,109.91 92.05,111.07 L91.95,111.17 C90.8,112.32 90.8,114.2 91.95,115.35 Q92.83,116.21 94.05,116.21 C94.8,116.21 95.56,115.93 96.14,115.35z"/>
      </g>
      <g id="element86">
        <path id="path98" fill="#FFF" d="M73.99,76.15 C72.35,76.15 71.03,77.47 71.03,79.11 71.03,80.73 72.35,82.06 73.99,82.06 L80.6,82.06 C82.23,82.06 83.55,80.73 83.55,79.11 83.55,77.47 82.23,76.15 80.6,76.15 L73.99,76.15z"/>
      </g>
      <g id="element87">
        <path id="path99" fill="#FFF" d="M97,43.13 L95.33,41.47 C94.17,40.32 92.3,40.32 91.15,41.47 89.99,42.63 89.99,44.49 91.15,45.65 L92.81,47.32 Q93.7,48.19 94.91,48.19 C95.67,48.19 96.42,47.89 97,47.32 98.15,46.16 98.15,44.29 97,43.13z"/>
      </g>
      <g id="element88">
        <path id="path100" fill="#FFF" d="M132.04,18.91 C132.04,17.27 130.72,15.95 129.09,15.95 127.45,15.95 126.13,17.27 126.13,18.91 L126.13,31.8 Q126.13,33.03 127,33.88 127.86,34.75 129.09,34.75 C130.72,34.75 132.04,33.43 132.04,31.8 L132.04,18.91z"/>
      </g>
      <g id="element89">
        <path id="path101" fill="#FFF" d="M129.09,48.04 C146.45,48.04 160.57,62.16 160.57,79.52 160.57,88.98 157.45,92.97 153.52,98 149.54,103.09 145.03,108.86 142.91,120.81 Q142.7,122.01 143.4,123.01 144.1,124.02 145.3,124.23 C146.91,124.52 148.45,123.44 148.73,121.83 150.6,111.33 154.45,106.41 158.18,101.65 162.44,96.18 166.48,91.02 166.48,79.52 166.48,58.91 149.71,42.13 129.09,42.13 108.46,42.13 91.69,58.91 91.69,79.52 91.69,91.02 95.72,96.18 100,101.65 103.93,106.67 107.99,111.86 109.72,123.54 110.65,129.82 114.46,133.57 119.92,133.57 L132.46,133.57 C134.1,133.54 135.69,133.51 137.27,133.51 138.85,133.51 140.43,133.54 141.87,133.7 L142.5,133.8 C141.92,133.96 141.29,134.1 140.65,134.21 139.91,134.35 139.14,134.45 138.36,134.54 136.81,134.71 135.21,134.82 133.61,134.91 132,134.99 130.36,135.05 128.73,135.12 127.08,135.18 125.43,135.25 123.75,135.36 122.91,135.41 122.06,135.49 121.2,135.58 120.33,135.67 119.46,135.78 118.53,135.98 118.06,136.08 117.57,136.19 117.06,136.37 116.8,136.46 116.52,136.56 116.24,136.69 115.94,136.83 115.63,136.99 115.27,137.24 115.1,137.36 114.91,137.52 114.73,137.7 114.54,137.9 114.35,138.13 114.17,138.42 114.01,138.71 113.86,139.04 113.78,139.41 113.74,139.58 113.7,139.77 113.69,139.95 L113.68,140.14 C113.68,140.23 113.68,140.06 113.68,140.34 L113.79,141.04 C113.83,141.23 113.9,141.39 113.96,141.56 114.1,141.87 114.28,142.16 114.45,142.37 114.8,142.82 115.14,143.09 115.46,143.3 116.09,143.72 116.6,143.93 117.1,144.13 117.6,144.3 118.07,144.44 118.53,144.55 119.43,144.78 120.3,144.94 121.16,145.08 122.88,145.35 124.55,145.51 126.2,145.67 129.52,145.97 132.8,146.15 136.02,146.43 L138.05,146.61 C136.03,146.83 133.94,146.95 131.83,147.07 129.47,147.21 127.07,147.32 124.63,147.53 124.02,147.58 123.4,147.65 122.78,147.72 122.15,147.79 121.51,147.88 120.84,148.01 120.5,148.06 120.16,148.14 119.8,148.23 119.45,148.32 119.07,148.43 118.64,148.61 118.42,148.69 118.19,148.8 117.93,148.95 117.67,149.1 117.37,149.29 117.03,149.63 116.86,149.8 116.68,150.02 116.52,150.29 116.36,150.58 116.22,150.91 116.14,151.29 116.07,151.66 116.06,152.05 116.11,152.37 116.14,152.54 116.17,152.68 116.22,152.83 L116.36,153.22 C116.48,153.51 116.66,153.78 116.87,154.02 L117,154.17 117.23,154.38 117.34,154.47 C117.61,154.66 117.81,154.77 117.99,154.87 118.34,155.06 118.62,155.16 118.89,155.26 119.42,155.45 119.88,155.59 120.36,155.72 121.28,155.96 122.16,156.16 123.04,156.35 124.78,156.72 126.5,157.04 128.2,157.38 129.89,157.71 131.57,158.05 133.18,158.45 133.98,158.65 134.76,158.87 135.44,159.11 135.6,159.18 135.76,159.23 135.9,159.3 L135.91,159.3 C136.23,159.96 136.84,160.49 137.62,160.68 139.02,161.04 140.44,160.19 140.79,158.78 140.88,158.45 140.91,158.09 140.87,157.73 140.84,157.39 140.74,157.05 140.63,156.79 140.51,156.52 140.38,156.32 140.25,156.14 140.19,156.06 140.13,155.97 140.06,155.91 L139.89,155.72 C139.44,155.27 139.09,155.09 138.78,154.9 138.48,154.73 138.2,154.6 137.93,154.49 137.67,154.38 137.42,154.29 137.17,154.21 136.2,153.87 135.31,153.64 134.41,153.42 132.63,153.01 130.9,152.66 129.17,152.34 L128.68,152.25 C129.82,152.17 130.96,152.12 132.12,152.05 134.51,151.9 136.91,151.75 139.39,151.45 140.01,151.37 140.64,151.29 141.28,151.18 141.91,151.07 142.56,150.94 143.23,150.76 143.92,150.58 144.62,150.36 145.44,149.94 145.85,149.71 146.31,149.44 146.81,148.9 147.06,148.64 147.31,148.29 147.5,147.86 147.68,147.47 147.78,147 147.8,146.56 147.83,146.14 147.76,145.68 147.62,145.29 147.47,144.86 147.24,144.51 147.01,144.26 146.8,144.01 146.59,143.83 146.4,143.68 146.22,143.54 146.03,143.43 145.88,143.34 145.54,143.16 145.26,143.04 144.99,142.93 144.72,142.83 144.46,142.75 144.22,142.68 143.24,142.39 142.37,142.23 141.5,142.09 139.77,141.83 138.11,141.67 136.44,141.52 133.13,141.23 129.86,141.03 126.66,140.74 125.58,140.63 124.5,140.52 123.46,140.39 L124.07,140.35 C125.66,140.25 127.29,140.18 128.92,140.13 130.55,140.06 132.2,140.01 133.86,139.92 135.52,139.85 137.2,139.76 138.9,139.58 139.76,139.5 140.62,139.39 141.5,139.25 142.37,139.11 143.27,138.93 144.21,138.67 144.68,138.53 145.17,138.36 145.67,138.14 146.18,137.92 146.72,137.65 147.28,137.22 147.56,136.99 147.85,136.73 148.13,136.4 148.41,136.08 148.67,135.68 148.86,135.22 148.96,134.99 149.04,134.75 149.09,134.5 L149.14,134.31 149.21,133.64 149.21,133.39 C149.2,133.26 149.2,133.12 149.18,132.98 149.15,132.72 149.08,132.44 149,132.17 148.82,131.63 148.52,131.14 148.21,130.77 147.89,130.4 147.56,130.12 147.24,129.9 146.61,129.46 146.03,129.22 145.51,129.03 144.45,128.66 143.52,128.47 142.61,128.34 141.7,128.2 140.82,128.1 139.96,128.03 139.09,127.97 138.24,127.91 137.4,127.86 135.73,127.78 134.09,127.74 132.47,127.65 L119.92,127.65 C119.03,127.65 116.31,127.65 115.57,122.67 113.61,109.45 108.85,103.37 104.66,98 100.72,92.97 97.61,88.98 97.61,79.52 97.61,62.16 111.73,48.04 129.09,48.04z"/>
      </g>
      <animate attributeName="display" begin="0s" repeatCount="indefinite" dur="0.46s" keyTimes="0;0.91;1" values="none;inline;none" transform="matrix(1 0 0 1 -0.5 0.05)"/>
    </g>
    <g id="Bulb_3_9">
      <g id="element74">
        <path id="path86" fill="#FFF" d="M160.55,44.07 L160.45,44.17 C159.29,45.32 159.29,47.19 160.45,48.35 Q161.32,49.21 162.54,49.21 C163.29,49.21 164.05,48.93 164.63,48.35 L164.74,48.24 C165.89,47.09 165.89,45.22 164.74,44.07 163.58,42.91 161.7,42.91 160.55,44.07z"/>
      </g>
      <g id="element75">
        <path id="path87" fill="#FFF" d="M192.17,80.21 C192.17,78.58 190.84,77.26 189.21,77.26 L176.31,77.26 C174.68,77.26 173.36,78.58 173.36,80.21 173.36,81.84 174.68,83.17 176.31,83.17 L189.21,83.17 C190.84,83.17 192.17,81.84 192.17,80.21z"/>
      </g>
      <g id="element76">
        <path id="path88" fill="#FFF" d="M164.22,112.03 C163.06,110.87 161.19,110.87 160.03,112.03 158.88,113.18 158.88,115.06 160.03,116.21 L164.85,121.02 Q165.72,121.89 166.93,121.89 C167.69,121.89 168.45,121.59 169.02,121.02 170.18,119.86 170.18,117.99 169.02,116.83 L164.22,112.03z"/>
      </g>
      <g id="element77">
        <path id="path89" fill="#FFF" d="M71.96,76.15 C70.32,76.15 69,77.47 69,79.11 69,80.73 70.32,82.06 71.96,82.06 L80.6,82.06 C82.23,82.06 83.55,80.73 83.55,79.11 83.55,77.47 82.23,76.15 80.6,76.15 L71.96,76.15z"/>
      </g>
      <g id="element78">
        <path id="path90" fill="#FFF" d="M94.91,48.19 C95.67,48.19 96.42,47.89 97,47.32 98.15,46.16 98.15,44.29 97,43.13 L93.89,40.03 C92.74,38.87 90.86,38.87 89.71,40.03 88.55,41.18 88.55,43.06 89.71,44.22 L92.81,47.32 Q93.7,48.19 94.91,48.19z"/>
      </g>
      <g id="element79">
        <path id="path91" fill="#FFF" d="M132.04,19.83 C132.04,18.2 130.72,16.87 129.09,16.87 127.45,16.87 126.13,18.2 126.13,19.83 L126.13,31.8 Q126.13,33.03 127,33.88 127.86,34.75 129.09,34.75 C130.72,34.75 132.04,33.43 132.04,31.8 L132.04,19.83z"/>
      </g>
      <g id="element80">
        <path id="path92" fill="#FFF" d="M96.24,115.25 C97.39,114.1 97.39,112.22 96.24,111.07 95.08,109.91 93.21,109.91 92.05,111.07 L90.39,112.74 C89.24,113.89 89.24,115.76 90.39,116.92 Q91.25,117.78 92.48,117.78 C93.24,117.78 93.99,117.5 94.57,116.92 L96.24,115.25z"/>
      </g>
      <g id="element81">
        <path id="path93" fill="#FFF" d="M129.09,48.04 C146.45,48.04 160.57,62.16 160.57,79.52 160.57,88.98 157.45,92.97 153.52,98 149.54,103.09 145.03,108.86 142.91,120.81 Q142.7,122.01 143.4,123.01 144.1,124.02 145.3,124.23 C146.91,124.52 148.45,123.44 148.73,121.83 150.6,111.33 154.45,106.41 158.18,101.65 162.44,96.18 166.48,91.02 166.48,79.52 166.48,58.91 149.71,42.13 129.09,42.13 108.46,42.13 91.69,58.91 91.69,79.52 91.69,91.02 95.72,96.18 100,101.65 103.93,106.67 107.99,111.86 109.72,123.54 110.65,129.82 114.46,133.57 119.92,133.57 L132.46,133.57 C134.1,133.54 135.69,133.51 137.27,133.51 138.85,133.51 140.43,133.54 141.87,133.7 L142.5,133.8 C141.92,133.96 141.29,134.1 140.65,134.21 139.91,134.35 139.14,134.45 138.36,134.54 136.81,134.71 135.21,134.82 133.61,134.91 132,134.99 130.36,135.05 128.73,135.12 127.08,135.18 125.43,135.25 123.75,135.36 122.91,135.41 122.06,135.49 121.2,135.58 120.33,135.67 119.46,135.78 118.53,135.98 118.06,136.08 117.57,136.19 117.06,136.37 116.8,136.46 116.52,136.56 116.24,136.69 115.94,136.83 115.63,136.99 115.27,137.24 115.1,137.36 114.91,137.52 114.73,137.7 114.54,137.9 114.35,138.13 114.17,138.42 114.01,138.71 113.86,139.04 113.78,139.41 113.74,139.58 113.7,139.77 113.69,139.95 L113.68,140.14 C113.68,140.23 113.68,140.06 113.68,140.34 L113.79,141.04 C113.83,141.23 113.9,141.39 113.96,141.56 114.1,141.87 114.28,142.16 114.45,142.37 114.8,142.82 115.14,143.09 115.46,143.3 116.09,143.72 116.6,143.93 117.1,144.13 117.6,144.3 118.07,144.44 118.53,144.55 119.43,144.78 120.3,144.94 121.16,145.08 122.88,145.35 124.55,145.51 126.2,145.67 129.52,145.97 132.8,146.15 136.02,146.43 L138.05,146.61 C136.03,146.83 133.94,146.95 131.83,147.07 129.47,147.21 127.07,147.32 124.63,147.53 124.02,147.58 123.4,147.65 122.78,147.72 122.15,147.79 121.51,147.88 120.84,148.01 120.5,148.06 120.16,148.14 119.8,148.23 119.45,148.32 119.07,148.43 118.64,148.61 118.42,148.69 118.19,148.8 117.93,148.95 117.67,149.1 117.37,149.29 117.03,149.63 116.86,149.8 116.68,150.02 116.52,150.29 116.36,150.58 116.22,150.91 116.14,151.29 116.07,151.66 116.06,152.05 116.11,152.37 116.14,152.54 116.17,152.68 116.22,152.83 L116.36,153.22 C116.48,153.51 116.66,153.78 116.87,154.02 L117,154.17 117.23,154.38 117.34,154.47 C117.61,154.66 117.81,154.77 117.99,154.87 118.34,155.06 118.62,155.16 118.89,155.26 119.42,155.45 119.88,155.59 120.36,155.72 121.28,155.96 122.16,156.16 123.04,156.35 124.78,156.72 126.5,157.04 128.2,157.38 129.89,157.71 131.57,158.05 133.18,158.45 133.98,158.65 134.76,158.87 135.44,159.11 135.6,159.18 135.76,159.23 135.9,159.3 L135.91,159.3 C136.23,159.96 136.84,160.49 137.62,160.68 139.02,161.04 140.44,160.19 140.79,158.78 140.88,158.45 140.91,158.09 140.87,157.73 140.84,157.39 140.74,157.05 140.63,156.79 140.51,156.52 140.38,156.32 140.25,156.14 140.19,156.06 140.13,155.97 140.06,155.91 L139.89,155.72 C139.44,155.27 139.09,155.09 138.78,154.9 138.48,154.73 138.2,154.6 137.93,154.49 137.67,154.38 137.42,154.29 137.17,154.21 136.2,153.87 135.31,153.64 134.41,153.42 132.63,153.01 130.9,152.66 129.17,152.34 L128.68,152.25 C129.82,152.17 130.96,152.12 132.12,152.05 134.51,151.9 136.91,151.75 139.39,151.45 140.01,151.37 140.64,151.29 141.28,151.18 141.91,151.07 142.56,150.94 143.23,150.76 143.92,150.58 144.62,150.36 145.44,149.94 145.85,149.71 146.31,149.44 146.81,148.9 147.06,148.64 147.31,148.29 147.5,147.86 147.68,147.47 147.78,147 147.8,146.56 147.83,146.14 147.76,145.68 147.62,145.29 147.47,144.86 147.24,144.51 147.01,144.26 146.8,144.01 146.59,143.83 146.4,143.68 146.22,143.54 146.03,143.43 145.88,143.34 145.54,143.16 145.26,143.04 144.99,142.93 144.72,142.83 144.46,142.75 144.22,142.68 143.24,142.39 142.37,142.23 141.5,142.09 139.77,141.83 138.11,141.67 136.44,141.52 133.13,141.23 129.86,141.03 126.66,140.74 125.58,140.63 124.5,140.52 123.46,140.39 L124.07,140.35 C125.66,140.25 127.29,140.18 128.92,140.13 130.55,140.06 132.2,140.01 133.86,139.92 135.52,139.85 137.2,139.76 138.9,139.58 139.76,139.5 140.62,139.39 141.5,139.25 142.37,139.11 143.27,138.93 144.21,138.67 144.68,138.53 145.17,138.36 145.67,138.14 146.18,137.92 146.72,137.65 147.28,137.22 147.56,136.99 147.85,136.73 148.13,136.4 148.41,136.08 148.67,135.68 148.86,135.22 148.96,134.99 149.04,134.75 149.09,134.5 L149.14,134.31 149.21,133.64 149.21,133.39 C149.2,133.26 149.2,133.12 149.18,132.98 149.15,132.72 149.08,132.44 149,132.17 148.82,131.63 148.52,131.14 148.21,130.77 147.89,130.4 147.56,130.12 147.24,129.9 146.61,129.46 146.03,129.22 145.51,129.03 144.45,128.66 143.52,128.47 142.61,128.34 141.7,128.2 140.82,128.1 139.96,128.03 139.09,127.97 138.24,127.91 137.4,127.86 135.73,127.78 134.09,127.74 132.47,127.65 L119.92,127.65 C119.03,127.65 116.31,127.65 115.57,122.67 113.61,109.45 108.85,103.37 104.66,98 100.72,92.97 97.61,88.98 97.61,79.52 97.61,62.16 111.73,48.04 129.09,48.04z"/>
      </g>
      <animate attributeName="display" begin="0s" repeatCount="indefinite" dur="0.46s" keyTimes="0;0.82;0.91;1" values="none;inline;none;none" transform="matrix(1 0 0 1 -0.5 0.05)"/>
    </g>
    <g id="Bulb_3_8">
      <g id="element66">
        <path id="path78" fill="#FFF" d="M166.3,42.5 C165.14,41.34 163.28,41.34 162.12,42.5 L160.45,44.17 C159.29,45.32 159.29,47.19 160.45,48.35 Q161.32,49.21 162.54,49.21 C163.29,49.21 164.05,48.93 164.63,48.35 L166.3,46.67 C167.45,45.52 167.45,43.65 166.3,42.5z"/>
      </g>
      <g id="element67">
        <path id="path79" fill="#FFF" d="M191.25,80.21 C191.25,78.58 189.91,77.26 188.29,77.26 L176.31,77.26 C174.68,77.26 173.36,78.58 173.36,80.21 173.36,81.84 174.68,83.17 176.31,83.17 L188.29,83.17 C189.91,83.17 191.25,81.84 191.25,80.21z"/>
      </g>
      <g id="element68">
        <path id="path80" fill="#FFF" d="M167.19,115 L164.22,112.03 C163.06,110.87 161.19,110.87 160.03,112.03 158.88,113.18 158.88,115.06 160.03,116.21 L163.02,119.19 Q163.44,119.61 164,119.83 164.53,120.06 165.11,120.06 C165.86,120.06 166.62,119.76 167.19,119.19 168.35,118.03 168.35,116.16 167.19,115z"/>
      </g>
      <g id="element69">
        <path id="path81" fill="#FFF" d="M96.24,115.25 C97.39,114.1 97.39,112.22 96.24,111.07 95.08,109.91 93.21,109.91 92.05,111.07 L88.95,114.17 C87.79,115.33 87.79,117.2 88.95,118.36 Q89.82,119.23 91.04,119.23 C91.8,119.23 92.55,118.93 93.14,118.36 L96.24,115.25z"/>
      </g>
      <g id="element70">
        <path id="path82" fill="#FFF" d="M69.74,76.15 C68.1,76.15 66.78,77.47 66.78,79.11 66.78,80.73 68.1,82.06 69.74,82.06 L80.6,82.06 C82.23,82.06 83.55,80.73 83.55,79.11 83.55,77.47 82.23,76.15 80.6,76.15 L69.74,76.15z"/>
      </g>
      <g id="element71">
        <path id="path83" fill="#FFF" d="M94.91,48.19 C95.67,48.19 96.42,47.89 97,47.32 98.15,46.16 98.15,44.29 97,43.13 L92.32,38.46 C91.17,37.3 89.29,37.3 88.14,38.46 86.98,39.61 86.98,41.49 88.14,42.64 L92.81,47.32 Q93.7,48.19 94.91,48.19z"/>
      </g>
      <g id="element72">
        <path id="path84" fill="#FFF" d="M132.04,22.42 C132.04,20.78 130.72,19.46 129.09,19.46 127.45,19.46 126.13,20.78 126.13,22.42 L126.13,31.8 Q126.13,33.03 127,33.88 127.86,34.75 129.09,34.75 C130.72,34.75 132.04,33.43 132.04,31.8 L132.04,22.42z"/>
      </g>
      <g id="element73">
        <path id="path85" fill="#FFF" d="M129.09,48.04 C146.45,48.04 160.57,62.16 160.57,79.52 160.57,88.98 157.45,92.97 153.52,98 149.54,103.09 145.03,108.86 142.91,120.81 Q142.7,122.01 143.4,123.01 144.1,124.02 145.3,124.23 C146.91,124.52 148.45,123.44 148.73,121.83 150.6,111.33 154.45,106.41 158.18,101.65 162.44,96.18 166.48,91.02 166.48,79.52 166.48,58.91 149.71,42.13 129.09,42.13 108.46,42.13 91.69,58.91 91.69,79.52 91.69,91.02 95.72,96.18 100,101.65 103.93,106.67 107.99,111.86 109.72,123.54 110.65,129.82 114.46,133.57 119.92,133.57 L132.46,133.57 C134.1,133.54 135.69,133.51 137.27,133.51 138.85,133.51 140.43,133.54 141.87,133.7 L142.5,133.8 C141.92,133.96 141.29,134.1 140.65,134.21 139.91,134.35 139.14,134.45 138.36,134.54 136.81,134.71 135.21,134.82 133.61,134.91 132,134.99 130.36,135.05 128.73,135.12 127.08,135.18 125.43,135.25 123.75,135.36 122.91,135.41 122.06,135.49 121.2,135.58 120.33,135.67 119.46,135.78 118.53,135.98 118.06,136.08 117.57,136.19 117.06,136.37 116.8,136.46 116.52,136.56 116.24,136.69 115.94,136.83 115.63,136.99 115.27,137.24 115.1,137.36 114.91,137.52 114.73,137.7 114.54,137.9 114.35,138.13 114.17,138.42 114.01,138.71 113.86,139.04 113.78,139.41 113.74,139.58 113.7,139.77 113.69,139.95 L113.68,140.14 C113.68,140.23 113.68,140.06 113.68,140.34 L113.79,141.04 C113.83,141.23 113.9,141.39 113.96,141.56 114.1,141.87 114.28,142.16 114.45,142.37 114.8,142.82 115.14,143.09 115.46,143.3 116.09,143.72 116.6,143.93 117.1,144.13 117.6,144.3 118.07,144.44 118.53,144.55 119.43,144.78 120.3,144.94 121.16,145.08 122.88,145.35 124.55,145.51 126.2,145.67 129.52,145.97 132.8,146.15 136.02,146.43 L138.05,146.61 C136.03,146.83 133.94,146.95 131.83,147.07 129.47,147.21 127.07,147.32 124.63,147.53 124.02,147.58 123.4,147.65 122.78,147.72 122.15,147.79 121.51,147.88 120.84,148.01 120.5,148.06 120.16,148.14 119.8,148.23 119.45,148.32 119.07,148.43 118.64,148.61 118.42,148.69 118.19,148.8 117.93,148.95 117.67,149.1 117.37,149.29 117.03,149.63 116.86,149.8 116.68,150.02 116.52,150.29 116.36,150.58 116.22,150.91 116.14,151.29 116.07,151.66 116.06,152.05 116.11,152.37 116.14,152.54 116.17,152.68 116.22,152.83 L116.36,153.22 C116.48,153.51 116.66,153.78 116.87,154.02 L117,154.17 117.23,154.38 117.34,154.47 C117.61,154.66 117.81,154.77 117.99,154.87 118.34,155.06 118.62,155.16 118.89,155.26 119.42,155.45 119.88,155.59 120.36,155.72 121.28,155.96 122.16,156.16 123.04,156.35 124.78,156.72 126.5,157.04 128.2,157.38 129.89,157.71 131.57,158.05 133.18,158.45 133.98,158.65 134.76,158.87 135.44,159.11 135.6,159.18 135.76,159.23 135.9,159.3 L135.91,159.3 C136.23,159.96 136.84,160.49 137.62,160.68 139.02,161.04 140.44,160.19 140.79,158.78 140.88,158.45 140.91,158.09 140.87,157.73 140.84,157.39 140.74,157.05 140.63,156.79 140.51,156.52 140.38,156.32 140.25,156.14 140.19,156.06 140.13,155.97 140.06,155.91 L139.89,155.72 C139.44,155.27 139.09,155.09 138.78,154.9 138.48,154.73 138.2,154.6 137.93,154.49 137.67,154.38 137.42,154.29 137.17,154.21 136.2,153.87 135.31,153.64 134.41,153.42 132.63,153.01 130.9,152.66 129.17,152.34 L128.68,152.25 C129.82,152.17 130.96,152.12 132.12,152.05 134.51,151.9 136.91,151.75 139.39,151.45 140.01,151.37 140.64,151.29 141.28,151.18 141.91,151.07 142.56,150.94 143.23,150.76 143.92,150.58 144.62,150.36 145.44,149.94 145.85,149.71 146.31,149.44 146.81,148.9 147.06,148.64 147.31,148.29 147.5,147.86 147.68,147.47 147.78,147 147.8,146.56 147.83,146.14 147.76,145.68 147.62,145.29 147.47,144.86 147.24,144.51 147.01,144.26 146.8,144.01 146.59,143.83 146.4,143.68 146.22,143.54 146.03,143.43 145.88,143.34 145.54,143.16 145.26,143.04 144.99,142.93 144.72,142.83 144.46,142.75 144.22,142.68 143.24,142.39 142.37,142.23 141.5,142.09 139.77,141.83 138.11,141.67 136.44,141.52 133.13,141.23 129.86,141.03 126.66,140.74 125.58,140.63 124.5,140.52 123.46,140.39 L124.07,140.35 C125.66,140.25 127.29,140.18 128.92,140.13 130.55,140.06 132.2,140.01 133.86,139.92 135.52,139.85 137.2,139.76 138.9,139.58 139.76,139.5 140.62,139.39 141.5,139.25 142.37,139.11 143.27,138.93 144.21,138.67 144.68,138.53 145.17,138.36 145.67,138.14 146.18,137.92 146.72,137.65 147.28,137.22 147.56,136.99 147.85,136.73 148.13,136.4 148.41,136.08 148.67,135.68 148.86,135.22 148.96,134.99 149.04,134.75 149.09,134.5 L149.14,134.31 149.21,133.64 149.21,133.39 C149.2,133.26 149.2,133.12 149.18,132.98 149.15,132.72 149.08,132.44 149,132.17 148.82,131.63 148.52,131.14 148.21,130.77 147.89,130.4 147.56,130.12 147.24,129.9 146.61,129.46 146.03,129.22 145.51,129.03 144.45,128.66 143.52,128.47 142.61,128.34 141.7,128.2 140.82,128.1 139.96,128.03 139.09,127.97 138.24,127.91 137.4,127.86 135.73,127.78 134.09,127.74 132.47,127.65 L119.92,127.65 C119.03,127.65 116.31,127.65 115.57,122.67 113.61,109.45 108.85,103.37 104.66,98 100.72,92.97 97.61,88.98 97.61,79.52 97.61,62.16 111.73,48.04 129.09,48.04z"/>
      </g>
      <animate attributeName="display" begin="0s" repeatCount="indefinite" dur="0.46s" keyTimes="0;0.72;0.82;1" values="none;inline;none;none" transform="matrix(1 0 0 1 -0.5 0.05)"/>
    </g>
    <g id="Bulb_3_7">
      <g id="element58">
        <path id="path70" fill="#FFF" d="M167.74,45.24 C168.89,44.09 168.89,42.21 167.74,41.05 166.58,39.9 164.71,39.9 163.55,41.05 L160.45,44.17 C159.29,45.32 159.29,47.19 160.45,48.35 Q161.32,49.21 162.54,49.21 C163.29,49.21 164.05,48.93 164.63,48.35 L167.74,45.24z"/>
      </g>
      <g id="element59">
        <path id="path71" fill="#FFF" d="M188.66,80.21 C188.66,78.58 187.33,77.26 185.7,77.26 L176.31,77.26 C174.68,77.26 173.36,78.58 173.36,80.21 173.36,81.84 174.68,83.17 176.31,83.17 L185.7,83.17 C187.33,83.17 188.66,81.84 188.66,80.21z"/>
      </g>
      <g id="element60">
        <path id="path72" fill="#FFF" d="M165.36,117.36 C166.52,116.2 166.52,114.33 165.36,113.17 L164.22,112.03 C163.06,110.87 161.19,110.87 160.03,112.03 158.88,113.18 158.88,115.06 160.03,116.21 L161.19,117.36 Q161.61,117.78 162.17,118.01 162.7,118.23 163.28,118.23 C164.03,118.23 164.79,117.93 165.36,117.36z"/>
      </g>
      <g id="element61">
        <path id="path73" fill="#FFF" d="M96.24,115.25 C97.39,114.1 97.39,112.22 96.24,111.07 95.08,109.91 93.21,109.91 92.05,111.07 L87.38,115.74 C86.22,116.9 86.22,118.77 87.38,119.93 Q88.26,120.79 89.48,120.79 C90.22,120.79 90.98,120.5 91.56,119.93 L96.24,115.25z"/>
      </g>
      <g id="element62">
        <path id="path74" fill="#FFF" d="M67.71,76.15 C66.07,76.15 64.75,77.47 64.75,79.11 64.75,80.73 66.07,82.06 67.71,82.06 L80.6,82.06 C82.23,82.06 83.55,80.73 83.55,79.11 83.55,77.47 82.23,76.15 80.6,76.15 L67.71,76.15z"/>
      </g>
      <g id="element63">
        <path id="path75" fill="#FFF" d="M94.91,48.19 C95.67,48.19 96.42,47.89 97,47.32 98.15,46.16 98.15,44.29 97,43.13 L90.88,37.03 C89.73,35.87 87.86,35.87 86.7,37.03 85.55,38.18 85.55,40.05 86.7,41.2 L92.81,47.32 Q93.7,48.19 94.91,48.19z"/>
      </g>
      <g id="element64">
        <path id="path76" fill="#FFF" d="M132.04,25.01 C132.04,23.37 130.72,22.05 129.09,22.05 127.45,22.05 126.13,23.37 126.13,25.01 L126.13,31.8 Q126.13,33.03 127,33.88 127.86,34.75 129.09,34.75 C130.72,34.75 132.04,33.43 132.04,31.8 L132.04,25.01z"/>
      </g>
      <g id="element65">
        <path id="path77" fill="#FFF" d="M129.09,48.04 C146.45,48.04 160.57,62.16 160.57,79.52 160.57,88.98 157.45,92.97 153.52,98 149.54,103.09 145.03,108.86 142.91,120.81 Q142.7,122.01 143.4,123.01 144.1,124.02 145.3,124.23 C146.91,124.52 148.45,123.44 148.73,121.83 150.6,111.33 154.45,106.41 158.18,101.65 162.44,96.18 166.48,91.02 166.48,79.52 166.48,58.91 149.71,42.13 129.09,42.13 108.46,42.13 91.69,58.91 91.69,79.52 91.69,91.02 95.72,96.18 100,101.65 103.93,106.67 107.99,111.86 109.72,123.54 110.65,129.82 114.46,133.57 119.92,133.57 L132.46,133.57 C134.1,133.54 135.69,133.51 137.27,133.51 138.85,133.51 140.43,133.54 141.87,133.7 L142.5,133.8 C141.92,133.96 141.29,134.1 140.65,134.21 139.91,134.35 139.14,134.45 138.36,134.54 136.81,134.71 135.21,134.82 133.61,134.91 132,134.99 130.36,135.05 128.73,135.12 127.08,135.18 125.43,135.25 123.75,135.36 122.91,135.41 122.06,135.49 121.2,135.58 120.33,135.67 119.46,135.78 118.53,135.98 118.06,136.08 117.57,136.19 117.06,136.37 116.8,136.46 116.52,136.56 116.24,136.69 115.94,136.83 115.63,136.99 115.27,137.24 115.1,137.36 114.91,137.52 114.73,137.7 114.54,137.9 114.35,138.13 114.17,138.42 114.01,138.71 113.86,139.04 113.78,139.41 113.74,139.58 113.7,139.77 113.69,139.95 L113.68,140.14 C113.68,140.23 113.68,140.06 113.68,140.34 L113.79,141.04 C113.83,141.23 113.9,141.39 113.96,141.56 114.1,141.87 114.28,142.16 114.45,142.37 114.8,142.82 115.14,143.09 115.46,143.3 116.09,143.72 116.6,143.93 117.1,144.13 117.6,144.3 118.07,144.44 118.53,144.55 119.43,144.78 120.3,144.94 121.16,145.08 122.88,145.35 124.55,145.51 126.2,145.67 129.52,145.97 132.8,146.15 136.02,146.43 L138.05,146.61 C136.03,146.83 133.94,146.95 131.83,147.07 129.47,147.21 127.07,147.32 124.63,147.53 124.02,147.58 123.4,147.65 122.78,147.72 122.15,147.79 121.51,147.88 120.84,148.01 120.5,148.06 120.16,148.14 119.8,148.23 119.45,148.32 119.07,148.43 118.64,148.61 118.42,148.69 118.19,148.8 117.93,148.95 117.67,149.1 117.37,149.29 117.03,149.63 116.86,149.8 116.68,150.02 116.52,150.29 116.36,150.58 116.22,150.91 116.14,151.29 116.07,151.66 116.06,152.05 116.11,152.37 116.14,152.54 116.17,152.68 116.22,152.83 L116.36,153.22 C116.48,153.51 116.66,153.78 116.87,154.02 L117,154.17 117.23,154.38 117.34,154.47 C117.61,154.66 117.81,154.77 117.99,154.87 118.34,155.06 118.62,155.16 118.89,155.26 119.42,155.45 119.88,155.59 120.36,155.72 121.28,155.96 122.16,156.16 123.04,156.35 124.78,156.72 126.5,157.04 128.2,157.38 129.89,157.71 131.57,158.05 133.18,158.45 133.98,158.65 134.76,158.87 135.44,159.11 135.6,159.18 135.76,159.23 135.9,159.3 L135.91,159.3 C136.23,159.96 136.84,160.49 137.62,160.68 139.02,161.04 140.44,160.19 140.79,158.78 140.88,158.45 140.91,158.09 140.87,157.73 140.84,157.39 140.74,157.05 140.63,156.79 140.51,156.52 140.38,156.32 140.25,156.14 140.19,156.06 140.13,155.97 140.06,155.91 L139.89,155.72 C139.44,155.27 139.09,155.09 138.78,154.9 138.48,154.73 138.2,154.6 137.93,154.49 137.67,154.38 137.42,154.29 137.17,154.21 136.2,153.87 135.31,153.64 134.41,153.42 132.63,153.01 130.9,152.66 129.17,152.34 L128.68,152.25 C129.82,152.17 130.96,152.12 132.12,152.05 134.51,151.9 136.91,151.75 139.39,151.45 140.01,151.37 140.64,151.29 141.28,151.18 141.91,151.07 142.56,150.94 143.23,150.76 143.92,150.58 144.62,150.36 145.44,149.94 145.85,149.71 146.31,149.44 146.81,148.9 147.06,148.64 147.31,148.29 147.5,147.86 147.68,147.47 147.78,147 147.8,146.56 147.83,146.14 147.76,145.68 147.62,145.29 147.47,144.86 147.24,144.51 147.01,144.26 146.8,144.01 146.59,143.83 146.4,143.68 146.22,143.54 146.03,143.43 145.88,143.34 145.54,143.16 145.26,143.04 144.99,142.93 144.72,142.83 144.46,142.75 144.22,142.68 143.24,142.39 142.37,142.23 141.5,142.09 139.77,141.83 138.11,141.67 136.44,141.52 133.13,141.23 129.86,141.03 126.66,140.74 125.58,140.63 124.5,140.52 123.46,140.39 L124.07,140.35 C125.66,140.25 127.29,140.18 128.92,140.13 130.55,140.06 132.2,140.01 133.86,139.92 135.52,139.85 137.2,139.76 138.9,139.58 139.76,139.5 140.62,139.39 141.5,139.25 142.37,139.11 143.27,138.93 144.21,138.67 144.68,138.53 145.17,138.36 145.67,138.14 146.18,137.92 146.72,137.65 147.28,137.22 147.56,136.99 147.85,136.73 148.13,136.4 148.41,136.08 148.67,135.68 148.86,135.22 148.96,134.99 149.04,134.75 149.09,134.5 L149.14,134.31 149.21,133.64 149.21,133.39 C149.2,133.26 149.2,133.12 149.18,132.98 149.15,132.72 149.08,132.44 149,132.17 148.82,131.63 148.52,131.14 148.21,130.77 147.89,130.4 147.56,130.12 147.24,129.9 146.61,129.46 146.03,129.22 145.51,129.03 144.45,128.66 143.52,128.47 142.61,128.34 141.7,128.2 140.82,128.1 139.96,128.03 139.09,127.97 138.24,127.91 137.4,127.86 135.73,127.78 134.09,127.74 132.47,127.65 L119.92,127.65 C119.03,127.65 116.31,127.65 115.57,122.67 113.61,109.45 108.85,103.37 104.66,98 100.72,92.97 97.61,88.98 97.61,79.52 97.61,62.16 111.73,48.04 129.09,48.04z"/>
      </g>
      <animate attributeName="display" begin="0s" repeatCount="indefinite" dur="0.46s" keyTimes="0;0.63;0.72;1" values="none;inline;none;none" transform="matrix(1 0 0 1 -0.5 0.05)"/>
    </g>
    <g id="Bulb_3_6">
      <g id="element50">
        <path id="path62" fill="#FFF" d="M164.32,116.31 C165.47,115.16 165.47,113.28 164.32,112.13 L164.22,112.03 C163.06,110.87 161.19,110.87 160.03,112.03 158.88,113.18 158.88,115.06 160.03,116.21 L160.14,116.31 Q160.57,116.74 161.12,116.96 161.66,117.18 162.23,117.18 C162.99,117.18 163.75,116.89 164.32,116.31z"/>
      </g>
      <g id="element51">
        <path id="path63" fill="#FFF" d="M96.24,115.25 C97.39,114.1 97.39,112.22 96.24,111.07 95.08,109.91 93.21,109.91 92.05,111.07 L85.95,117.18 C84.79,118.34 84.79,120.2 85.95,121.36 Q86.81,122.23 88.03,122.23 C88.79,122.23 89.55,121.94 90.12,121.36 L96.24,115.25z"/>
      </g>
      <g id="element52">
        <path id="path64" fill="#FFF" d="M68.63,76.15 C67,76.15 65.67,77.47 65.67,79.11 65.67,80.73 67,82.06 68.63,82.06 L80.6,82.06 C82.23,82.06 83.55,80.73 83.55,79.11 83.55,77.47 82.23,76.15 80.6,76.15 L68.63,76.15z"/>
      </g>
      <g id="element53">
        <path id="path65" fill="#FFF" d="M183.11,83.17 C184.74,83.17 186.07,81.84 186.07,80.21 186.07,78.58 184.74,77.26 183.11,77.26 L176.31,77.26 C174.68,77.26 173.36,78.58 173.36,80.21 173.36,81.84 174.68,83.17 176.31,83.17 L183.11,83.17z"/>
      </g>
      <g id="element54">
        <path id="path66" fill="#FFF" d="M169.31,39.49 C168.15,38.34 166.28,38.34 165.12,39.49 L160.45,44.17 C159.29,45.32 159.29,47.19 160.45,48.35 Q161.32,49.21 162.54,49.21 C163.29,49.21 164.05,48.93 164.63,48.35 L169.31,43.67 C170.46,42.51 170.46,40.65 169.31,39.49z"/>
      </g>
      <g id="element55">
        <path id="path67" fill="#FFF" d="M94.91,48.19 C95.67,48.19 96.42,47.89 97,47.32 98.15,46.16 98.15,44.29 97,43.13 L89.32,35.46 C88.16,34.3 86.29,34.3 85.13,35.46 83.98,36.61 83.98,38.49 85.13,39.64 L92.81,47.32 Q93.7,48.19 94.91,48.19z"/>
      </g>
      <g id="element56">
        <path id="path68" fill="#FFF" d="M129.09,34.75 C130.72,34.75 132.04,33.43 132.04,31.8 L132.04,27.59 C132.04,25.96 130.72,24.64 129.09,24.64 127.45,24.64 126.13,25.96 126.13,27.59 L126.13,31.8 Q126.13,33.03 127,33.88 127.86,34.75 129.09,34.75z"/>
      </g>
      <g id="element57">
        <path id="path69" fill="#FFF" d="M129.09,48.04 C146.45,48.04 160.57,62.16 160.57,79.52 160.57,88.98 157.45,92.97 153.52,98 149.54,103.09 145.03,108.86 142.91,120.81 Q142.7,122.01 143.4,123.01 144.1,124.02 145.3,124.23 C146.91,124.52 148.45,123.44 148.73,121.83 150.6,111.33 154.45,106.41 158.18,101.65 162.44,96.18 166.48,91.02 166.48,79.52 166.48,58.91 149.71,42.13 129.09,42.13 108.46,42.13 91.69,58.91 91.69,79.52 91.69,91.02 95.72,96.18 100,101.65 103.93,106.67 107.99,111.86 109.72,123.54 110.65,129.82 114.46,133.57 119.92,133.57 L132.46,133.57 C134.1,133.54 135.69,133.51 137.27,133.51 138.85,133.51 140.43,133.54 141.87,133.7 L142.5,133.8 C141.92,133.96 141.29,134.1 140.65,134.21 139.91,134.35 139.14,134.45 138.36,134.54 136.81,134.71 135.21,134.82 133.61,134.91 132,134.99 130.36,135.05 128.73,135.12 127.08,135.18 125.43,135.25 123.75,135.36 122.91,135.41 122.06,135.49 121.2,135.58 120.33,135.67 119.46,135.78 118.53,135.98 118.06,136.08 117.57,136.19 117.06,136.37 116.8,136.46 116.52,136.56 116.24,136.69 115.94,136.83 115.63,136.99 115.27,137.24 115.1,137.36 114.91,137.52 114.73,137.7 114.54,137.9 114.35,138.13 114.17,138.42 114.01,138.71 113.86,139.04 113.78,139.41 113.74,139.58 113.7,139.77 113.69,139.95 L113.68,140.14 C113.68,140.23 113.68,140.06 113.68,140.34 L113.79,141.04 C113.83,141.23 113.9,141.39 113.96,141.56 114.1,141.87 114.28,142.16 114.45,142.37 114.8,142.82 115.14,143.09 115.46,143.3 116.09,143.72 116.6,143.93 117.1,144.13 117.6,144.3 118.07,144.44 118.53,144.55 119.43,144.78 120.3,144.94 121.16,145.08 122.88,145.35 124.55,145.51 126.2,145.67 129.52,145.97 132.8,146.15 136.02,146.43 L138.05,146.61 C136.03,146.83 133.94,146.95 131.83,147.07 129.47,147.21 127.07,147.32 124.63,147.53 124.02,147.58 123.4,147.65 122.78,147.72 122.15,147.79 121.51,147.88 120.84,148.01 120.5,148.06 120.16,148.14 119.8,148.23 119.45,148.32 119.07,148.43 118.64,148.61 118.42,148.69 118.19,148.8 117.93,148.95 117.67,149.1 117.37,149.29 117.03,149.63 116.86,149.8 116.68,150.02 116.52,150.29 116.36,150.58 116.22,150.91 116.14,151.29 116.07,151.66 116.06,152.05 116.11,152.37 116.14,152.54 116.17,152.68 116.22,152.83 L116.36,153.22 C116.48,153.51 116.66,153.78 116.87,154.02 L117,154.17 117.23,154.38 117.34,154.47 C117.61,154.66 117.81,154.77 117.99,154.87 118.34,155.06 118.62,155.16 118.89,155.26 119.42,155.45 119.88,155.59 120.36,155.72 121.28,155.96 122.16,156.16 123.04,156.35 124.78,156.72 126.5,157.04 128.2,157.38 129.89,157.71 131.57,158.05 133.18,158.45 133.98,158.65 134.76,158.87 135.44,159.11 135.6,159.18 135.76,159.23 135.9,159.3 L135.91,159.3 C136.23,159.96 136.84,160.49 137.62,160.68 139.02,161.04 140.44,160.19 140.79,158.78 140.88,158.45 140.91,158.09 140.87,157.73 140.84,157.39 140.74,157.05 140.63,156.79 140.51,156.52 140.38,156.32 140.25,156.14 140.19,156.06 140.13,155.97 140.06,155.91 L139.89,155.72 C139.44,155.27 139.09,155.09 138.78,154.9 138.48,154.73 138.2,154.6 137.93,154.49 137.67,154.38 137.42,154.29 137.17,154.21 136.2,153.87 135.31,153.64 134.41,153.42 132.63,153.01 130.9,152.66 129.17,152.34 L128.68,152.25 C129.82,152.17 130.96,152.12 132.12,152.05 134.51,151.9 136.91,151.75 139.39,151.45 140.01,151.37 140.64,151.29 141.28,151.18 141.91,151.07 142.56,150.94 143.23,150.76 143.92,150.58 144.62,150.36 145.44,149.94 145.85,149.71 146.31,149.44 146.81,148.9 147.06,148.64 147.31,148.29 147.5,147.86 147.68,147.47 147.78,147 147.8,146.56 147.83,146.14 147.76,145.68 147.62,145.29 147.47,144.86 147.24,144.51 147.01,144.26 146.8,144.01 146.59,143.83 146.4,143.68 146.22,143.54 146.03,143.43 145.88,143.34 145.54,143.16 145.26,143.04 144.99,142.93 144.72,142.83 144.46,142.75 144.22,142.68 143.24,142.39 142.37,142.23 141.5,142.09 139.77,141.83 138.11,141.67 136.44,141.52 133.13,141.23 129.86,141.03 126.66,140.74 125.58,140.63 124.5,140.52 123.46,140.39 L124.07,140.35 C125.66,140.25 127.29,140.18 128.92,140.13 130.55,140.06 132.2,140.01 133.86,139.92 135.52,139.85 137.2,139.76 138.9,139.58 139.76,139.5 140.62,139.39 141.5,139.25 142.37,139.11 143.27,138.93 144.21,138.67 144.68,138.53 145.17,138.36 145.67,138.14 146.18,137.92 146.72,137.65 147.28,137.22 147.56,136.99 147.85,136.73 148.13,136.4 148.41,136.08 148.67,135.68 148.86,135.22 148.96,134.99 149.04,134.75 149.09,134.5 L149.14,134.31 149.21,133.64 149.21,133.39 C149.2,133.26 149.2,133.12 149.18,132.98 149.15,132.72 149.08,132.44 149,132.17 148.82,131.63 148.52,131.14 148.21,130.77 147.89,130.4 147.56,130.12 147.24,129.9 146.61,129.46 146.03,129.22 145.51,129.03 144.45,128.66 143.52,128.47 142.61,128.34 141.7,128.2 140.82,128.1 139.96,128.03 139.09,127.97 138.24,127.91 137.4,127.86 135.73,127.78 134.09,127.74 132.47,127.65 L119.92,127.65 C119.03,127.65 116.31,127.65 115.57,122.67 113.61,109.45 108.85,103.37 104.66,98 100.72,92.97 97.61,88.98 97.61,79.52 97.61,62.16 111.73,48.04 129.09,48.04z"/>
      </g>
      <animate attributeName="display" begin="0s" repeatCount="indefinite" dur="0.46s" keyTimes="0;0.54;0.63;1" values="none;inline;none;none" transform="matrix(1 0 0 1 -0.5 0.05)"/>
    </g>
    <g id="Bulb_3_5">
      <g id="element42">
        <path id="path54" fill="#FFF" d="M96.24,115.25 C97.39,114.1 97.39,112.22 96.24,111.07 95.08,109.91 93.21,109.91 92.05,111.07 L84.38,118.74 C83.22,119.9 83.22,121.78 84.38,122.93 Q85.24,123.8 86.46,123.8 C87.22,123.8 87.98,123.5 88.56,122.93 L96.24,115.25z"/>
      </g>
      <g id="element43">
        <path id="path55" fill="#FFF" d="M71.22,76.15 C69.58,76.15 68.26,77.47 68.26,79.11 68.26,80.73 69.58,82.06 71.22,82.06 L80.6,82.06 C82.23,82.06 83.55,80.73 83.55,79.11 83.55,77.47 82.23,76.15 80.6,76.15 L71.22,76.15z"/>
      </g>
      <g id="element44">
        <path id="path56" fill="#FFF" d="M165.89,117.89 C167.05,116.73 167.05,114.85 165.89,113.7 L164.22,112.03 C163.06,110.87 161.19,110.87 160.03,112.03 158.88,113.18 158.88,115.06 160.03,116.21 L161.7,117.89 Q162.58,118.74 163.8,118.74 C164.55,118.74 165.31,118.46 165.89,117.89z"/>
      </g>
      <g id="element45">
        <path id="path57" fill="#FFF" d="M183.48,80.21 C183.48,78.58 182.15,77.26 180.53,77.26 L176.31,77.26 C174.68,77.26 173.36,78.58 173.36,80.21 173.36,81.84 174.68,83.17 176.31,83.17 L180.53,83.17 C182.15,83.17 183.48,81.84 183.48,80.21z"/>
      </g>
      <g id="element46">
        <path id="path58" fill="#FFF" d="M170.74,38.05 C169.59,36.9 167.72,36.9 166.57,38.05 L160.45,44.17 C159.29,45.32 159.29,47.19 160.45,48.35 Q161.32,49.21 162.54,49.21 C163.29,49.21 164.05,48.93 164.63,48.35 L170.74,42.24 C171.9,41.08 171.9,39.21 170.74,38.05z"/>
      </g>
      <g id="element47">
        <path id="path59" fill="#FFF" d="M94.91,48.19 C95.67,48.19 96.42,47.89 97,47.32 98.15,46.16 98.15,44.29 97,43.13 L87.88,34.02 C86.72,32.87 84.86,32.87 83.7,34.02 82.55,35.18 82.55,37.04 83.7,38.2 L92.81,47.32 Q93.7,48.19 94.91,48.19z"/>
      </g>
      <g id="element48">
        <path id="path60" fill="#FFF" d="M129.09,34.75 C130.72,34.75 132.04,33.43 132.04,31.8 L132.04,30.18 C132.04,28.54 130.72,27.22 129.09,27.22 127.45,27.22 126.13,28.54 126.13,30.18 L126.13,31.8 Q126.13,33.03 127,33.88 127.86,34.75 129.09,34.75z"/>
      </g>
      <g id="element49">
        <path id="path61" fill="#FFF" d="M129.09,48.04 C146.45,48.04 160.57,62.16 160.57,79.52 160.57,88.98 157.45,92.97 153.52,98 149.54,103.09 145.03,108.86 142.91,120.81 Q142.7,122.01 143.4,123.01 144.1,124.02 145.3,124.23 C146.91,124.52 148.45,123.44 148.73,121.83 150.6,111.33 154.45,106.41 158.18,101.65 162.44,96.18 166.48,91.02 166.48,79.52 166.48,58.91 149.71,42.13 129.09,42.13 108.46,42.13 91.69,58.91 91.69,79.52 91.69,91.02 95.72,96.18 100,101.65 103.93,106.67 107.99,111.86 109.72,123.54 110.65,129.82 114.46,133.57 119.92,133.57 L132.46,133.57 C134.1,133.54 135.69,133.51 137.27,133.51 138.85,133.51 140.43,133.54 141.87,133.7 L142.5,133.8 C141.92,133.96 141.29,134.1 140.65,134.21 139.91,134.35 139.14,134.45 138.36,134.54 136.81,134.71 135.21,134.82 133.61,134.91 132,134.99 130.36,135.05 128.73,135.12 127.08,135.18 125.43,135.25 123.75,135.36 122.91,135.41 122.06,135.49 121.2,135.58 120.33,135.67 119.46,135.78 118.53,135.98 118.06,136.08 117.57,136.19 117.06,136.37 116.8,136.46 116.52,136.56 116.24,136.69 115.94,136.83 115.63,136.99 115.27,137.24 115.1,137.36 114.91,137.52 114.73,137.7 114.54,137.9 114.35,138.13 114.17,138.42 114.01,138.71 113.86,139.04 113.78,139.41 113.74,139.58 113.7,139.77 113.69,139.95 L113.68,140.14 C113.68,140.23 113.68,140.06 113.68,140.34 L113.79,141.04 C113.83,141.23 113.9,141.39 113.96,141.56 114.1,141.87 114.28,142.16 114.45,142.37 114.8,142.82 115.14,143.09 115.46,143.3 116.09,143.72 116.6,143.93 117.1,144.13 117.6,144.3 118.07,144.44 118.53,144.55 119.43,144.78 120.3,144.94 121.16,145.08 122.88,145.35 124.55,145.51 126.2,145.67 129.52,145.97 132.8,146.15 136.02,146.43 L138.05,146.61 C136.03,146.83 133.94,146.95 131.83,147.07 129.47,147.21 127.07,147.32 124.63,147.53 124.02,147.58 123.4,147.65 122.78,147.72 122.15,147.79 121.51,147.88 120.84,148.01 120.5,148.06 120.16,148.14 119.8,148.23 119.45,148.32 119.07,148.43 118.64,148.61 118.42,148.69 118.19,148.8 117.93,148.95 117.67,149.1 117.37,149.29 117.03,149.63 116.86,149.8 116.68,150.02 116.52,150.29 116.36,150.58 116.22,150.91 116.14,151.29 116.07,151.66 116.06,152.05 116.11,152.37 116.14,152.54 116.17,152.68 116.22,152.83 L116.36,153.22 C116.48,153.51 116.66,153.78 116.87,154.02 L117,154.17 117.23,154.38 117.34,154.47 C117.61,154.66 117.81,154.77 117.99,154.87 118.34,155.06 118.62,155.16 118.89,155.26 119.42,155.45 119.88,155.59 120.36,155.72 121.28,155.96 122.16,156.16 123.04,156.35 124.78,156.72 126.5,157.04 128.2,157.38 129.89,157.71 131.57,158.05 133.18,158.45 133.98,158.65 134.76,158.87 135.44,159.11 135.6,159.18 135.76,159.23 135.9,159.3 L135.91,159.3 C136.23,159.96 136.84,160.49 137.62,160.68 139.02,161.04 140.44,160.19 140.79,158.78 140.88,158.45 140.91,158.09 140.87,157.73 140.84,157.39 140.74,157.05 140.63,156.79 140.51,156.52 140.38,156.32 140.25,156.14 140.19,156.06 140.13,155.97 140.06,155.91 L139.89,155.72 C139.44,155.27 139.09,155.09 138.78,154.9 138.48,154.73 138.2,154.6 137.93,154.49 137.67,154.38 137.42,154.29 137.17,154.21 136.2,153.87 135.31,153.64 134.41,153.42 132.63,153.01 130.9,152.66 129.17,152.34 L128.68,152.25 C129.82,152.17 130.96,152.12 132.12,152.05 134.51,151.9 136.91,151.75 139.39,151.45 140.01,151.37 140.64,151.29 141.28,151.18 141.91,151.07 142.56,150.94 143.23,150.76 143.92,150.58 144.62,150.36 145.44,149.94 145.85,149.71 146.31,149.44 146.81,148.9 147.06,148.64 147.31,148.29 147.5,147.86 147.68,147.47 147.78,147 147.8,146.56 147.83,146.14 147.76,145.68 147.62,145.29 147.47,144.86 147.24,144.51 147.01,144.26 146.8,144.01 146.59,143.83 146.4,143.68 146.22,143.54 146.03,143.43 145.88,143.34 145.54,143.16 145.26,143.04 144.99,142.93 144.72,142.83 144.46,142.75 144.22,142.68 143.24,142.39 142.37,142.23 141.5,142.09 139.77,141.83 138.11,141.67 136.44,141.52 133.13,141.23 129.86,141.03 126.66,140.74 125.58,140.63 124.5,140.52 123.46,140.39 L124.07,140.35 C125.66,140.25 127.29,140.18 128.92,140.13 130.55,140.06 132.2,140.01 133.86,139.92 135.52,139.85 137.2,139.76 138.9,139.58 139.76,139.5 140.62,139.39 141.5,139.25 142.37,139.11 143.27,138.93 144.21,138.67 144.68,138.53 145.17,138.36 145.67,138.14 146.18,137.92 146.72,137.65 147.28,137.22 147.56,136.99 147.85,136.73 148.13,136.4 148.41,136.08 148.67,135.68 148.86,135.22 148.96,134.99 149.04,134.75 149.09,134.5 L149.14,134.31 149.21,133.64 149.21,133.39 C149.2,133.26 149.2,133.12 149.18,132.98 149.15,132.72 149.08,132.44 149,132.17 148.82,131.63 148.52,131.14 148.21,130.77 147.89,130.4 147.56,130.12 147.24,129.9 146.61,129.46 146.03,129.22 145.51,129.03 144.45,128.66 143.52,128.47 142.61,128.34 141.7,128.2 140.82,128.1 139.96,128.03 139.09,127.97 138.24,127.91 137.4,127.86 135.73,127.78 134.09,127.74 132.47,127.65 L119.92,127.65 C119.03,127.65 116.31,127.65 115.57,122.67 113.61,109.45 108.85,103.37 104.66,98 100.72,92.97 97.61,88.98 97.61,79.52 97.61,62.16 111.73,48.04 129.09,48.04z"/>
      </g>
      <animate attributeName="display" begin="0s" repeatCount="indefinite" dur="0.46s" keyTimes="0;0.45;0.54;1" values="none;inline;none;none" transform="matrix(1 0 0 1 -0.5 0.05)"/>
    </g>
    <g id="Bulb_3_4">
      <g id="element34">
        <path id="path46" fill="#FFF" d="M96.24,115.25 C97.39,114.1 97.39,112.22 96.24,111.07 95.08,109.91 93.21,109.91 92.05,111.07 L82.93,120.19 C81.78,121.34 81.78,123.21 82.93,124.36 Q83.8,125.23 85.03,125.23 C85.79,125.23 86.55,124.94 87.12,124.36 L96.24,115.25z"/>
      </g>
      <g id="element35">
        <path id="path47" fill="#FFF" d="M73.81,76.15 C72.17,76.15 70.85,77.47 70.85,79.11 70.85,80.73 72.17,82.06 73.81,82.06 L80.6,82.06 C82.23,82.06 83.55,80.73 83.55,79.11 83.55,77.47 82.23,76.15 80.6,76.15 L73.81,76.15z"/>
      </g>
      <g id="element36">
        <path id="path48" fill="#FFF" d="M94.91,48.19 C95.67,48.19 96.42,47.89 97,47.32 98.15,46.16 98.15,44.29 97,43.13 L88.53,34.67 C87.38,33.52 85.5,33.52 84.35,34.67 83.19,35.83 83.19,37.7 84.35,38.86 L92.81,47.32 Q93.7,48.19 94.91,48.19z"/>
      </g>
      <g id="element37">
        <path id="path49" fill="#FFF" d="M129.09,34.75 C130.72,34.75 132.04,33.43 132.04,31.8 L132.04,31.66 C132.04,30.02 130.72,28.7 129.09,28.7 127.45,28.7 126.13,30.02 126.13,31.66 L126.13,31.8 Q126.13,33.03 127,33.88 127.86,34.75 129.09,34.75z"/>
      </g>
      <g id="element38">
        <path id="path50" fill="#FFF" d="M167.32,115.14 L164.22,112.03 C163.06,110.87 161.19,110.87 160.03,112.03 158.88,113.18 158.88,115.06 160.03,116.21 L163.15,119.32 Q164.01,120.19 165.23,120.19 C165.99,120.19 166.75,119.9 167.32,119.32 168.48,118.16 168.48,116.3 167.32,115.14z"/>
      </g>
      <g id="element39">
        <path id="path51" fill="#FFF" d="M180.9,80.21 C180.9,78.58 179.57,77.26 177.94,77.26 L176.31,77.26 C174.68,77.26 173.36,78.58 173.36,80.21 173.36,81.84 174.68,83.17 176.31,83.17 L177.94,83.17 C179.57,83.17 180.9,81.84 180.9,80.21z"/>
      </g>
      <g id="element40">
        <path id="path52" fill="#FFF" d="M160.45,44.17 C159.29,45.32 159.29,47.19 160.45,48.35 Q161.32,49.21 162.54,49.21 C163.29,49.21 164.05,48.93 164.63,48.35 L172.31,40.67 C173.47,39.51 173.47,37.64 172.31,36.48 171.16,35.33 169.28,35.33 168.13,36.48 L160.45,44.17z"/>
      </g>
      <g id="element41">
        <path id="path53" fill="#FFF" d="M129.09,48.04 C146.45,48.04 160.57,62.16 160.57,79.52 160.57,88.98 157.45,92.97 153.52,98 149.54,103.09 145.03,108.86 142.91,120.81 Q142.7,122.01 143.4,123.01 144.1,124.02 145.3,124.23 C146.91,124.52 148.45,123.44 148.73,121.83 150.6,111.33 154.45,106.41 158.18,101.65 162.44,96.18 166.48,91.02 166.48,79.52 166.48,58.91 149.71,42.13 129.09,42.13 108.46,42.13 91.69,58.91 91.69,79.52 91.69,91.02 95.72,96.18 100,101.65 103.93,106.67 107.99,111.86 109.72,123.54 110.65,129.82 114.46,133.57 119.92,133.57 L132.46,133.57 C134.1,133.54 135.69,133.51 137.27,133.51 138.85,133.51 140.43,133.54 141.87,133.7 L142.5,133.8 C141.92,133.96 141.29,134.1 140.65,134.21 139.91,134.35 139.14,134.45 138.36,134.54 136.81,134.71 135.21,134.82 133.61,134.91 132,134.99 130.36,135.05 128.73,135.12 127.08,135.18 125.43,135.25 123.75,135.36 122.91,135.41 122.06,135.49 121.2,135.58 120.33,135.67 119.46,135.78 118.53,135.98 118.06,136.08 117.57,136.19 117.06,136.37 116.8,136.46 116.52,136.56 116.24,136.69 115.94,136.83 115.63,136.99 115.27,137.24 115.1,137.36 114.91,137.52 114.73,137.7 114.54,137.9 114.35,138.13 114.17,138.42 114.01,138.71 113.86,139.04 113.78,139.41 113.74,139.58 113.7,139.77 113.69,139.95 L113.68,140.14 C113.68,140.23 113.68,140.06 113.68,140.34 L113.79,141.04 C113.83,141.23 113.9,141.39 113.96,141.56 114.1,141.87 114.28,142.16 114.45,142.37 114.8,142.82 115.14,143.09 115.46,143.3 116.09,143.72 116.6,143.93 117.1,144.13 117.6,144.3 118.07,144.44 118.53,144.55 119.43,144.78 120.3,144.94 121.16,145.08 122.88,145.35 124.55,145.51 126.2,145.67 129.52,145.97 132.8,146.15 136.02,146.43 L138.05,146.61 C136.03,146.83 133.94,146.95 131.83,147.07 129.47,147.21 127.07,147.32 124.63,147.53 124.02,147.58 123.4,147.65 122.78,147.72 122.15,147.79 121.51,147.88 120.84,148.01 120.5,148.06 120.16,148.14 119.8,148.23 119.45,148.32 119.07,148.43 118.64,148.61 118.42,148.69 118.19,148.8 117.93,148.95 117.67,149.1 117.37,149.29 117.03,149.63 116.86,149.8 116.68,150.02 116.52,150.29 116.36,150.58 116.22,150.91 116.14,151.29 116.07,151.66 116.06,152.05 116.11,152.37 116.14,152.54 116.17,152.68 116.22,152.83 L116.36,153.22 C116.48,153.51 116.66,153.78 116.87,154.02 L117,154.17 117.23,154.38 117.34,154.47 C117.61,154.66 117.81,154.77 117.99,154.87 118.34,155.06 118.62,155.16 118.89,155.26 119.42,155.45 119.88,155.59 120.36,155.72 121.28,155.96 122.16,156.16 123.04,156.35 124.78,156.72 126.5,157.04 128.2,157.38 129.89,157.71 131.57,158.05 133.18,158.45 133.98,158.65 134.76,158.87 135.44,159.11 135.6,159.18 135.76,159.23 135.9,159.3 L135.91,159.3 C136.23,159.96 136.84,160.49 137.62,160.68 139.02,161.04 140.44,160.19 140.79,158.78 140.88,158.45 140.91,158.09 140.87,157.73 140.84,157.39 140.74,157.05 140.63,156.79 140.51,156.52 140.38,156.32 140.25,156.14 140.19,156.06 140.13,155.97 140.06,155.91 L139.89,155.72 C139.44,155.27 139.09,155.09 138.78,154.9 138.48,154.73 138.2,154.6 137.93,154.49 137.67,154.38 137.42,154.29 137.17,154.21 136.2,153.87 135.31,153.64 134.41,153.42 132.63,153.01 130.9,152.66 129.17,152.34 L128.68,152.25 C129.82,152.17 130.96,152.12 132.12,152.05 134.51,151.9 136.91,151.75 139.39,151.45 140.01,151.37 140.64,151.29 141.28,151.18 141.91,151.07 142.56,150.94 143.23,150.76 143.92,150.58 144.62,150.36 145.44,149.94 145.85,149.71 146.31,149.44 146.81,148.9 147.06,148.64 147.31,148.29 147.5,147.86 147.68,147.47 147.78,147 147.8,146.56 147.83,146.14 147.76,145.68 147.62,145.29 147.47,144.86 147.24,144.51 147.01,144.26 146.8,144.01 146.59,143.83 146.4,143.68 146.22,143.54 146.03,143.43 145.88,143.34 145.54,143.16 145.26,143.04 144.99,142.93 144.72,142.83 144.46,142.75 144.22,142.68 143.24,142.39 142.37,142.23 141.5,142.09 139.77,141.83 138.11,141.67 136.44,141.52 133.13,141.23 129.86,141.03 126.66,140.74 125.58,140.63 124.5,140.52 123.46,140.39 L124.07,140.35 C125.66,140.25 127.29,140.18 128.92,140.13 130.55,140.06 132.2,140.01 133.86,139.92 135.52,139.85 137.2,139.76 138.9,139.58 139.76,139.5 140.62,139.39 141.5,139.25 142.37,139.11 143.27,138.93 144.21,138.67 144.68,138.53 145.17,138.36 145.67,138.14 146.18,137.92 146.72,137.65 147.28,137.22 147.56,136.99 147.85,136.73 148.13,136.4 148.41,136.08 148.67,135.68 148.86,135.22 148.96,134.99 149.04,134.75 149.09,134.5 L149.14,134.31 149.21,133.64 149.21,133.39 C149.2,133.26 149.2,133.12 149.18,132.98 149.15,132.72 149.08,132.44 149,132.17 148.82,131.63 148.52,131.14 148.21,130.77 147.89,130.4 147.56,130.12 147.24,129.9 146.61,129.46 146.03,129.22 145.51,129.03 144.45,128.66 143.52,128.47 142.61,128.34 141.7,128.2 140.82,128.1 139.96,128.03 139.09,127.97 138.24,127.91 137.4,127.86 135.73,127.78 134.09,127.74 132.47,127.65 L119.92,127.65 C119.03,127.65 116.31,127.65 115.57,122.67 113.61,109.45 108.85,103.37 104.66,98 100.72,92.97 97.61,88.98 97.61,79.52 97.61,62.16 111.73,48.04 129.09,48.04z"/>
      </g>
      <animate attributeName="display" begin="0s" repeatCount="indefinite" dur="0.46s" keyTimes="0;0.36;0.45;1" values="none;inline;none;none" transform="matrix(1 0 0 1 -0.5 0.05)"/>
    </g>
    <g id="Bulb_3_3">
      <g id="element26">
        <path id="path38" fill="#FFF" d="M96.24,115.25 C97.39,114.1 97.39,112.22 96.24,111.07 95.08,109.91 93.21,109.91 92.05,111.07 L83.59,119.53 C82.44,120.68 82.44,122.56 83.59,123.72 Q84.47,124.57 85.68,124.57 C86.44,124.57 87.19,124.29 87.78,123.72 L96.24,115.25z"/>
      </g>
      <g id="element27">
        <path id="path39" fill="#FFF" d="M76.39,76.15 C74.76,76.15 73.44,77.47 73.44,79.11 73.44,80.73 74.76,82.06 76.39,82.06 L80.6,82.06 C82.23,82.06 83.55,80.73 83.55,79.11 83.55,77.47 82.23,76.15 80.6,76.15 L76.39,76.15z"/>
      </g>
      <g id="element28">
        <path id="path40" fill="#FFF" d="M94.91,48.19 C95.67,48.19 96.42,47.89 97,47.32 98.15,46.16 98.15,44.29 97,43.13 L90.36,36.5 C89.21,35.34 87.33,35.34 86.18,36.5 85.02,37.65 85.02,39.53 86.18,40.69 L92.81,47.32 Q93.7,48.19 94.91,48.19z"/>
      </g>
      <g id="element29">
        <path id="path41" fill="#FFF" d="M129.09,34.75 C130.72,34.75 132.04,33.43 132.04,31.8 L132.04,29.44 C132.04,27.8 130.72,26.48 129.09,26.48 127.45,26.48 126.13,27.8 126.13,29.44 L126.13,31.8 Q126.13,33.03 127,33.88 127.86,34.75 129.09,34.75z"/>
      </g>
      <g id="element30">
        <path id="path42" fill="#FFF" d="M164.22,112.03 C163.06,110.87 161.19,110.87 160.03,112.03 158.88,113.18 158.88,115.06 160.03,116.21 L164.72,120.89 Q165.59,121.76 166.81,121.76 C167.56,121.76 168.32,121.46 168.89,120.89 170.05,119.73 170.05,117.86 168.89,116.7 L164.22,112.03z"/>
      </g>
      <g id="element31">
        <path id="path43" fill="#FFF" d="M176.46,77.26 L176.31,77.26 C174.68,77.26 173.36,78.58 173.36,80.21 173.36,81.84 174.68,83.17 176.31,83.17 L176.46,83.17 C178.09,83.17 179.42,81.84 179.42,80.21 179.42,78.58 178.09,77.26 176.46,77.26z"/>
      </g>
      <g id="element32">
        <path id="path44" fill="#FFF" d="M160.45,44.17 C159.29,45.32 159.29,47.19 160.45,48.35 Q161.32,49.21 162.54,49.21 C163.29,49.21 164.05,48.93 164.63,48.35 L173.75,39.23 C174.9,38.07 174.9,36.2 173.75,35.05 172.6,33.89 170.72,33.89 169.57,35.05 L160.45,44.17z"/>
      </g>
      <g id="element33">
        <path id="path45" fill="#FFF" d="M129.09,48.04 C146.45,48.04 160.57,62.16 160.57,79.52 160.57,88.98 157.45,92.97 153.52,98 149.54,103.09 145.03,108.86 142.91,120.81 Q142.7,122.01 143.4,123.01 144.1,124.02 145.3,124.23 C146.91,124.52 148.45,123.44 148.73,121.83 150.6,111.33 154.45,106.41 158.18,101.65 162.44,96.18 166.48,91.02 166.48,79.52 166.48,58.91 149.71,42.13 129.09,42.13 108.46,42.13 91.69,58.91 91.69,79.52 91.69,91.02 95.72,96.18 100,101.65 103.93,106.67 107.99,111.86 109.72,123.54 110.65,129.82 114.46,133.57 119.92,133.57 L132.46,133.57 C134.1,133.54 135.69,133.51 137.27,133.51 138.85,133.51 140.43,133.54 141.87,133.7 L142.5,133.8 C141.92,133.96 141.29,134.1 140.65,134.21 139.91,134.35 139.14,134.45 138.36,134.54 136.81,134.71 135.21,134.82 133.61,134.91 132,134.99 130.36,135.05 128.73,135.12 127.08,135.18 125.43,135.25 123.75,135.36 122.91,135.41 122.06,135.49 121.2,135.58 120.33,135.67 119.46,135.78 118.53,135.98 118.06,136.08 117.57,136.19 117.06,136.37 116.8,136.46 116.52,136.56 116.24,136.69 115.94,136.83 115.63,136.99 115.27,137.24 115.1,137.36 114.91,137.52 114.73,137.7 114.54,137.9 114.35,138.13 114.17,138.42 114.01,138.71 113.86,139.04 113.78,139.41 113.74,139.58 113.7,139.77 113.69,139.95 L113.68,140.14 C113.68,140.23 113.68,140.06 113.68,140.34 L113.79,141.04 C113.83,141.23 113.9,141.39 113.96,141.56 114.1,141.87 114.28,142.16 114.45,142.37 114.8,142.82 115.14,143.09 115.46,143.3 116.09,143.72 116.6,143.93 117.1,144.13 117.6,144.3 118.07,144.44 118.53,144.55 119.43,144.78 120.3,144.94 121.16,145.08 122.88,145.35 124.55,145.51 126.2,145.67 129.52,145.97 132.8,146.15 136.02,146.43 L138.05,146.61 C136.03,146.83 133.94,146.95 131.83,147.07 129.47,147.21 127.07,147.32 124.63,147.53 124.02,147.58 123.4,147.65 122.78,147.72 122.15,147.79 121.51,147.88 120.84,148.01 120.5,148.06 120.16,148.14 119.8,148.23 119.45,148.32 119.07,148.43 118.64,148.61 118.42,148.69 118.19,148.8 117.93,148.95 117.67,149.1 117.37,149.29 117.03,149.63 116.86,149.8 116.68,150.02 116.52,150.29 116.36,150.58 116.22,150.91 116.14,151.29 116.07,151.66 116.06,152.05 116.11,152.37 116.14,152.54 116.17,152.68 116.22,152.83 L116.36,153.22 C116.48,153.51 116.66,153.78 116.87,154.02 L117,154.17 117.23,154.38 117.34,154.47 C117.61,154.66 117.81,154.77 117.99,154.87 118.34,155.06 118.62,155.16 118.89,155.26 119.42,155.45 119.88,155.59 120.36,155.72 121.28,155.96 122.16,156.16 123.04,156.35 124.78,156.72 126.5,157.04 128.2,157.38 129.89,157.71 131.57,158.05 133.18,158.45 133.98,158.65 134.76,158.87 135.44,159.11 135.6,159.18 135.76,159.23 135.9,159.3 L135.91,159.3 C136.23,159.96 136.84,160.49 137.62,160.68 139.02,161.04 140.44,160.19 140.79,158.78 140.88,158.45 140.91,158.09 140.87,157.73 140.84,157.39 140.74,157.05 140.63,156.79 140.51,156.52 140.38,156.32 140.25,156.14 140.19,156.06 140.13,155.97 140.06,155.91 L139.89,155.72 C139.44,155.27 139.09,155.09 138.78,154.9 138.48,154.73 138.2,154.6 137.93,154.49 137.67,154.38 137.42,154.29 137.17,154.21 136.2,153.87 135.31,153.64 134.41,153.42 132.63,153.01 130.9,152.66 129.17,152.34 L128.68,152.25 C129.82,152.17 130.96,152.12 132.12,152.05 134.51,151.9 136.91,151.75 139.39,151.45 140.01,151.37 140.64,151.29 141.28,151.18 141.91,151.07 142.56,150.94 143.23,150.76 143.92,150.58 144.62,150.36 145.44,149.94 145.85,149.71 146.31,149.44 146.81,148.9 147.06,148.64 147.31,148.29 147.5,147.86 147.68,147.47 147.78,147 147.8,146.56 147.83,146.14 147.76,145.68 147.62,145.29 147.47,144.86 147.24,144.51 147.01,144.26 146.8,144.01 146.59,143.83 146.4,143.68 146.22,143.54 146.03,143.43 145.88,143.34 145.54,143.16 145.26,143.04 144.99,142.93 144.72,142.83 144.46,142.75 144.22,142.68 143.24,142.39 142.37,142.23 141.5,142.09 139.77,141.83 138.11,141.67 136.44,141.52 133.13,141.23 129.86,141.03 126.66,140.74 125.58,140.63 124.5,140.52 123.46,140.39 L124.07,140.35 C125.66,140.25 127.29,140.18 128.92,140.13 130.55,140.06 132.2,140.01 133.86,139.92 135.52,139.85 137.2,139.76 138.9,139.58 139.76,139.5 140.62,139.39 141.5,139.25 142.37,139.11 143.27,138.93 144.21,138.67 144.68,138.53 145.17,138.36 145.67,138.14 146.18,137.92 146.72,137.65 147.28,137.22 147.56,136.99 147.85,136.73 148.13,136.4 148.41,136.08 148.67,135.68 148.86,135.22 148.96,134.99 149.04,134.75 149.09,134.5 L149.14,134.31 149.21,133.64 149.21,133.39 C149.2,133.26 149.2,133.12 149.18,132.98 149.15,132.72 149.08,132.44 149,132.17 148.82,131.63 148.52,131.14 148.21,130.77 147.89,130.4 147.56,130.12 147.24,129.9 146.61,129.46 146.03,129.22 145.51,129.03 144.45,128.66 143.52,128.47 142.61,128.34 141.7,128.2 140.82,128.1 139.96,128.03 139.09,127.97 138.24,127.91 137.4,127.86 135.73,127.78 134.09,127.74 132.47,127.65 L119.92,127.65 C119.03,127.65 116.31,127.65 115.57,122.67 113.61,109.45 108.85,103.37 104.66,98 100.72,92.97 97.61,88.98 97.61,79.52 97.61,62.16 111.73,48.04 129.09,48.04z"/>
      </g>
      <animate attributeName="display" begin="0s" repeatCount="indefinite" dur="0.46s" keyTimes="0;0.27;0.36;1" values="none;inline;none;none" transform="matrix(1 0 0 1 -0.5 0.05)"/>
    </g>
    <g id="Bulb_3_2">
      <g id="element18">
        <path id="path30" fill="#FFF" d="M96.24,115.25 C97.39,114.1 97.39,112.22 96.24,111.07 95.08,109.91 93.21,109.91 92.05,111.07 L85.42,117.7 C84.26,118.86 84.26,120.73 85.42,121.89 Q86.3,122.75 87.51,122.75 C88.27,122.75 89.02,122.46 89.61,121.89 L96.24,115.25z"/>
      </g>
      <g id="element19">
        <path id="path31" fill="#FFF" d="M78.98,76.15 C77.34,76.15 76.02,77.47 76.02,79.11 76.02,80.73 77.34,82.06 78.98,82.06 L80.6,82.06 C82.23,82.06 83.55,80.73 83.55,79.11 83.55,77.47 82.23,76.15 80.6,76.15 L78.98,76.15z"/>
      </g>
      <g id="element20">
        <path id="path32" fill="#FFF" d="M94.91,48.19 C95.67,48.19 96.42,47.89 97,47.32 98.15,46.16 98.15,44.29 97,43.13 L92.19,38.33 C91.04,37.17 89.16,37.17 88.01,38.33 86.85,39.48 86.85,41.36 88.01,42.51 L92.81,47.32 Q93.7,48.19 94.91,48.19z"/>
      </g>
      <g id="element21">
        <path id="path33" fill="#FFF" d="M129.09,34.75 C130.72,34.75 132.04,33.43 132.04,31.8 L132.04,27.41 C132.04,25.77 130.72,24.45 129.09,24.45 127.45,24.45 126.13,25.77 126.13,27.41 L126.13,31.8 Q126.13,33.03 127,33.88 127.86,34.75 129.09,34.75z"/>
      </g>
      <g id="element22">
        <path id="path34" fill="#FFF" d="M164.22,112.03 C163.06,110.87 161.19,110.87 160.03,112.03 158.88,113.18 158.88,115.06 160.03,116.21 L166.15,122.32 Q167.02,123.19 168.24,123.19 C169,123.19 169.75,122.9 170.34,122.32 171.49,121.17 171.49,119.3 170.34,118.14 L164.22,112.03z"/>
      </g>
      <g id="element23">
        <path id="path35" fill="#FFF" d="M181.64,80.21 C181.64,78.58 180.3,77.26 178.68,77.26 L176.31,77.26 C174.68,77.26 173.36,78.58 173.36,80.21 173.36,81.84 174.68,83.17 176.31,83.17 L178.68,83.17 C180.3,83.17 181.64,81.84 181.64,80.21z"/>
      </g>
      <g id="element24">
        <path id="path36" fill="#FFF" d="M160.45,44.17 C159.29,45.32 159.29,47.19 160.45,48.35 Q161.32,49.21 162.54,49.21 C163.29,49.21 164.05,48.93 164.63,48.35 L173.1,39.88 C174.25,38.73 174.25,36.85 173.1,35.7 171.94,34.55 170.07,34.55 168.91,35.7 L160.45,44.17z"/>
      </g>
      <g id="element25">
        <path id="path37" fill="#FFF" d="M129.09,48.04 C146.45,48.04 160.57,62.16 160.57,79.52 160.57,88.98 157.45,92.97 153.52,98 149.54,103.09 145.03,108.86 142.91,120.81 Q142.7,122.01 143.4,123.01 144.1,124.02 145.3,124.23 C146.91,124.52 148.45,123.44 148.73,121.83 150.6,111.33 154.45,106.41 158.18,101.65 162.44,96.18 166.48,91.02 166.48,79.52 166.48,58.91 149.71,42.13 129.09,42.13 108.46,42.13 91.69,58.91 91.69,79.52 91.69,91.02 95.72,96.18 100,101.65 103.93,106.67 107.99,111.86 109.72,123.54 110.65,129.82 114.46,133.57 119.92,133.57 L132.46,133.57 C134.1,133.54 135.69,133.51 137.27,133.51 138.85,133.51 140.43,133.54 141.87,133.7 L142.5,133.8 C141.92,133.96 141.29,134.1 140.65,134.21 139.91,134.35 139.14,134.45 138.36,134.54 136.81,134.71 135.21,134.82 133.61,134.91 132,134.99 130.36,135.05 128.73,135.12 127.08,135.18 125.43,135.25 123.75,135.36 122.91,135.41 122.06,135.49 121.2,135.58 120.33,135.67 119.46,135.78 118.53,135.98 118.06,136.08 117.57,136.19 117.06,136.37 116.8,136.46 116.52,136.56 116.24,136.69 115.94,136.83 115.63,136.99 115.27,137.24 115.1,137.36 114.91,137.52 114.73,137.7 114.54,137.9 114.35,138.13 114.17,138.42 114.01,138.71 113.86,139.04 113.78,139.41 113.74,139.58 113.7,139.77 113.69,139.95 L113.68,140.14 C113.68,140.23 113.68,140.06 113.68,140.34 L113.79,141.04 C113.83,141.23 113.9,141.39 113.96,141.56 114.1,141.87 114.28,142.16 114.45,142.37 114.8,142.82 115.14,143.09 115.46,143.3 116.09,143.72 116.6,143.93 117.1,144.13 117.6,144.3 118.07,144.44 118.53,144.55 119.43,144.78 120.3,144.94 121.16,145.08 122.88,145.35 124.55,145.51 126.2,145.67 129.52,145.97 132.8,146.15 136.02,146.43 L138.05,146.61 C136.03,146.83 133.94,146.95 131.83,147.07 129.47,147.21 127.07,147.32 124.63,147.53 124.02,147.58 123.4,147.65 122.78,147.72 122.15,147.79 121.51,147.88 120.84,148.01 120.5,148.06 120.16,148.14 119.8,148.23 119.45,148.32 119.07,148.43 118.64,148.61 118.42,148.69 118.19,148.8 117.93,148.95 117.67,149.1 117.37,149.29 117.03,149.63 116.86,149.8 116.68,150.02 116.52,150.29 116.36,150.58 116.22,150.91 116.14,151.29 116.07,151.66 116.06,152.05 116.11,152.37 116.14,152.54 116.17,152.68 116.22,152.83 L116.36,153.22 C116.48,153.51 116.66,153.78 116.87,154.02 L117,154.17 117.23,154.38 117.34,154.47 C117.61,154.66 117.81,154.77 117.99,154.87 118.34,155.06 118.62,155.16 118.89,155.26 119.42,155.45 119.88,155.59 120.36,155.72 121.28,155.96 122.16,156.16 123.04,156.35 124.78,156.72 126.5,157.04 128.2,157.38 129.89,157.71 131.57,158.05 133.18,158.45 133.98,158.65 134.76,158.87 135.44,159.11 135.6,159.18 135.76,159.23 135.9,159.3 L135.91,159.3 C136.23,159.96 136.84,160.49 137.62,160.68 139.02,161.04 140.44,160.19 140.79,158.78 140.88,158.45 140.91,158.09 140.87,157.73 140.84,157.39 140.74,157.05 140.63,156.79 140.51,156.52 140.38,156.32 140.25,156.14 140.19,156.06 140.13,155.97 140.06,155.91 L139.89,155.72 C139.44,155.27 139.09,155.09 138.78,154.9 138.48,154.73 138.2,154.6 137.93,154.49 137.67,154.38 137.42,154.29 137.17,154.21 136.2,153.87 135.31,153.64 134.41,153.42 132.63,153.01 130.9,152.66 129.17,152.34 L128.68,152.25 C129.82,152.17 130.96,152.12 132.12,152.05 134.51,151.9 136.91,151.75 139.39,151.45 140.01,151.37 140.64,151.29 141.28,151.18 141.91,151.07 142.56,150.94 143.23,150.76 143.92,150.58 144.62,150.36 145.44,149.94 145.85,149.71 146.31,149.44 146.81,148.9 147.06,148.64 147.31,148.29 147.5,147.86 147.68,147.47 147.78,147 147.8,146.56 147.83,146.14 147.76,145.68 147.62,145.29 147.47,144.86 147.24,144.51 147.01,144.26 146.8,144.01 146.59,143.83 146.4,143.68 146.22,143.54 146.03,143.43 145.88,143.34 145.54,143.16 145.26,143.04 144.99,142.93 144.72,142.83 144.46,142.75 144.22,142.68 143.24,142.39 142.37,142.23 141.5,142.09 139.77,141.83 138.11,141.67 136.44,141.52 133.13,141.23 129.86,141.03 126.66,140.74 125.58,140.63 124.5,140.52 123.46,140.39 L124.07,140.35 C125.66,140.25 127.29,140.18 128.92,140.13 130.55,140.06 132.2,140.01 133.86,139.92 135.52,139.85 137.2,139.76 138.9,139.58 139.76,139.5 140.62,139.39 141.5,139.25 142.37,139.11 143.27,138.93 144.21,138.67 144.68,138.53 145.17,138.36 145.67,138.14 146.18,137.92 146.72,137.65 147.28,137.22 147.56,136.99 147.85,136.73 148.13,136.4 148.41,136.08 148.67,135.68 148.86,135.22 148.96,134.99 149.04,134.75 149.09,134.5 L149.14,134.31 149.21,133.64 149.21,133.39 C149.2,133.26 149.2,133.12 149.18,132.98 149.15,132.72 149.08,132.44 149,132.17 148.82,131.63 148.52,131.14 148.21,130.77 147.89,130.4 147.56,130.12 147.24,129.9 146.61,129.46 146.03,129.22 145.51,129.03 144.45,128.66 143.52,128.47 142.61,128.34 141.7,128.2 140.82,128.1 139.96,128.03 139.09,127.97 138.24,127.91 137.4,127.86 135.73,127.78 134.09,127.74 132.47,127.65 L119.92,127.65 C119.03,127.65 116.31,127.65 115.57,122.67 113.61,109.45 108.85,103.37 104.66,98 100.72,92.97 97.61,88.98 97.61,79.52 97.61,62.16 111.73,48.04 129.09,48.04z"/>
      </g>
      <animate attributeName="display" begin="0s" repeatCount="indefinite" dur="0.46s" keyTimes="0;0.18;0.27;1" values="none;inline;none;none" transform="matrix(1 0 0 1 -0.5 0.05)"/>
    </g>
    <g id="Bulb_3_1">
      <g id="element10">
        <path id="path22" fill="#FFF" d="M96.24,115.25 C97.39,114.1 97.39,112.22 96.24,111.07 95.08,109.91 93.21,109.91 92.05,111.07 L87.25,115.87 C86.09,117.03 86.09,118.9 87.25,120.06 Q88.13,120.92 89.34,120.92 C90.1,120.92 90.85,120.63 91.44,120.06 L96.24,115.25z"/>
      </g>
      <g id="element11">
        <path id="path23" fill="#FFF" d="M80.46,76.15 C78.82,76.15 77.5,77.47 77.5,79.11 77.5,80.73 78.82,82.06 80.46,82.06 L80.6,82.06 C82.23,82.06 83.55,80.73 83.55,79.11 83.55,77.47 82.23,76.15 80.6,76.15 L80.46,76.15z"/>
      </g>
      <g id="element12">
        <path id="path24" fill="#FFF" d="M94.91,48.19 C95.67,48.19 96.42,47.89 97,47.32 98.15,46.16 98.15,44.29 97,43.13 L94.02,40.16 C92.87,39 90.99,39 89.84,40.16 88.68,41.31 88.68,43.19 89.84,44.34 L92.81,47.32 Q93.7,48.19 94.91,48.19z"/>
      </g>
      <g id="element13">
        <path id="path25" fill="#FFF" d="M132.04,25.19 C132.04,23.55 130.72,22.23 129.09,22.23 127.45,22.23 126.13,23.55 126.13,25.19 L126.13,31.8 Q126.13,33.03 127,33.88 127.86,34.75 129.09,34.75 C130.72,34.75 132.04,33.43 132.04,31.8 L132.04,25.19z"/>
      </g>
      <g id="element14">
        <path id="path26" fill="#FFF" d="M164.22,112.03 C163.06,110.87 161.19,110.87 160.03,112.03 158.88,113.18 158.88,115.06 160.03,116.21 L167.72,123.89 Q168.58,124.76 169.81,124.76 C170.57,124.76 171.32,124.47 171.9,123.89 173.05,122.74 173.05,120.87 171.9,119.71 L164.22,112.03z"/>
      </g>
      <g id="element15">
        <path id="path27" fill="#FFF" d="M183.67,80.21 C183.67,78.58 182.34,77.26 180.71,77.26 L176.31,77.26 C174.68,77.26 173.36,78.58 173.36,80.21 173.36,81.84 174.68,83.17 176.31,83.17 L180.71,83.17 C182.34,83.17 183.67,81.84 183.67,80.21z"/>
      </g>
      <g id="element16">
        <path id="path28" fill="#FFF" d="M171.27,37.53 C170.11,36.38 168.24,36.38 167.08,37.53 L160.45,44.17 C159.29,45.32 159.29,47.19 160.45,48.35 Q161.32,49.21 162.54,49.21 C163.29,49.21 164.05,48.93 164.63,48.35 L171.27,41.71 C172.42,40.56 172.42,38.68 171.27,37.53z"/>
      </g>
      <g id="element17">
        <path id="path29" fill="#FFF" d="M129.09,48.04 C146.45,48.04 160.57,62.16 160.57,79.52 160.57,88.98 157.45,92.97 153.52,98 149.54,103.09 145.03,108.86 142.91,120.81 Q142.7,122.01 143.4,123.01 144.1,124.02 145.3,124.23 C146.91,124.52 148.45,123.44 148.73,121.83 150.6,111.33 154.45,106.41 158.18,101.65 162.44,96.18 166.48,91.02 166.48,79.52 166.48,58.91 149.71,42.13 129.09,42.13 108.46,42.13 91.69,58.91 91.69,79.52 91.69,91.02 95.72,96.18 100,101.65 103.93,106.67 107.99,111.86 109.72,123.54 110.65,129.82 114.46,133.57 119.92,133.57 L132.46,133.57 C134.1,133.54 135.69,133.51 137.27,133.51 138.85,133.51 140.43,133.54 141.87,133.7 L142.5,133.8 C141.92,133.96 141.29,134.1 140.65,134.21 139.91,134.35 139.14,134.45 138.36,134.54 136.81,134.71 135.21,134.82 133.61,134.91 132,134.99 130.36,135.05 128.73,135.12 127.08,135.18 125.43,135.25 123.75,135.36 122.91,135.41 122.06,135.49 121.2,135.58 120.33,135.67 119.46,135.78 118.53,135.98 118.06,136.08 117.57,136.19 117.06,136.37 116.8,136.46 116.52,136.56 116.24,136.69 115.94,136.83 115.63,136.99 115.27,137.24 115.1,137.36 114.91,137.52 114.73,137.7 114.54,137.9 114.35,138.13 114.17,138.42 114.01,138.71 113.86,139.04 113.78,139.41 113.74,139.58 113.7,139.77 113.69,139.95 L113.68,140.14 C113.68,140.23 113.68,140.06 113.68,140.34 L113.79,141.04 C113.83,141.23 113.9,141.39 113.96,141.56 114.1,141.87 114.28,142.16 114.45,142.37 114.8,142.82 115.14,143.09 115.46,143.3 116.09,143.72 116.6,143.93 117.1,144.13 117.6,144.3 118.07,144.44 118.53,144.55 119.43,144.78 120.3,144.94 121.16,145.08 122.88,145.35 124.55,145.51 126.2,145.67 129.52,145.97 132.8,146.15 136.02,146.43 L138.05,146.61 C136.03,146.83 133.94,146.95 131.83,147.07 129.47,147.21 127.07,147.32 124.63,147.53 124.02,147.58 123.4,147.65 122.78,147.72 122.15,147.79 121.51,147.88 120.84,148.01 120.5,148.06 120.16,148.14 119.8,148.23 119.45,148.32 119.07,148.43 118.64,148.61 118.42,148.69 118.19,148.8 117.93,148.95 117.67,149.1 117.37,149.29 117.03,149.63 116.86,149.8 116.68,150.02 116.52,150.29 116.36,150.58 116.22,150.91 116.14,151.29 116.07,151.66 116.06,152.05 116.11,152.37 116.14,152.54 116.17,152.68 116.22,152.83 L116.36,153.22 C116.48,153.51 116.66,153.78 116.87,154.02 L117,154.17 117.23,154.38 117.34,154.47 C117.61,154.66 117.81,154.77 117.99,154.87 118.34,155.06 118.62,155.16 118.89,155.26 119.42,155.45 119.88,155.59 120.36,155.72 121.28,155.96 122.16,156.16 123.04,156.35 124.78,156.72 126.5,157.04 128.2,157.38 129.89,157.71 131.57,158.05 133.18,158.45 133.98,158.65 134.76,158.87 135.44,159.11 135.6,159.18 135.76,159.23 135.9,159.3 L135.91,159.3 C136.23,159.96 136.84,160.49 137.62,160.68 139.02,161.04 140.44,160.19 140.79,158.78 140.88,158.45 140.91,158.09 140.87,157.73 140.84,157.39 140.74,157.05 140.63,156.79 140.51,156.52 140.38,156.32 140.25,156.14 140.19,156.06 140.13,155.97 140.06,155.91 L139.89,155.72 C139.44,155.27 139.09,155.09 138.78,154.9 138.48,154.73 138.2,154.6 137.93,154.49 137.67,154.38 137.42,154.29 137.17,154.21 136.2,153.87 135.31,153.64 134.41,153.42 132.63,153.01 130.9,152.66 129.17,152.34 L128.68,152.25 C129.82,152.17 130.96,152.12 132.12,152.05 134.51,151.9 136.91,151.75 139.39,151.45 140.01,151.37 140.64,151.29 141.28,151.18 141.91,151.07 142.56,150.94 143.23,150.76 143.92,150.58 144.62,150.36 145.44,149.94 145.85,149.71 146.31,149.44 146.81,148.9 147.06,148.64 147.31,148.29 147.5,147.86 147.68,147.47 147.78,147 147.8,146.56 147.83,146.14 147.76,145.68 147.62,145.29 147.47,144.86 147.24,144.51 147.01,144.26 146.8,144.01 146.59,143.83 146.4,143.68 146.22,143.54 146.03,143.43 145.88,143.34 145.54,143.16 145.26,143.04 144.99,142.93 144.72,142.83 144.46,142.75 144.22,142.68 143.24,142.39 142.37,142.23 141.5,142.09 139.77,141.83 138.11,141.67 136.44,141.52 133.13,141.23 129.86,141.03 126.66,140.74 125.58,140.63 124.5,140.52 123.46,140.39 L124.07,140.35 C125.66,140.25 127.29,140.18 128.92,140.13 130.55,140.06 132.2,140.01 133.86,139.92 135.52,139.85 137.2,139.76 138.9,139.58 139.76,139.5 140.62,139.39 141.5,139.25 142.37,139.11 143.27,138.93 144.21,138.67 144.68,138.53 145.17,138.36 145.67,138.14 146.18,137.92 146.72,137.65 147.28,137.22 147.56,136.99 147.85,136.73 148.13,136.4 148.41,136.08 148.67,135.68 148.86,135.22 148.96,134.99 149.04,134.75 149.09,134.5 L149.14,134.31 149.21,133.64 149.21,133.39 C149.2,133.26 149.2,133.12 149.18,132.98 149.15,132.72 149.08,132.44 149,132.17 148.82,131.63 148.52,131.14 148.21,130.77 147.89,130.4 147.56,130.12 147.24,129.9 146.61,129.46 146.03,129.22 145.51,129.03 144.45,128.66 143.52,128.47 142.61,128.34 141.7,128.2 140.82,128.1 139.96,128.03 139.09,127.97 138.24,127.91 137.4,127.86 135.73,127.78 134.09,127.74 132.47,127.65 L119.92,127.65 C119.03,127.65 116.31,127.65 115.57,122.67 113.61,109.45 108.85,103.37 104.66,98 100.72,92.97 97.61,88.98 97.61,79.52 97.61,62.16 111.73,48.04 129.09,48.04z"/>
      </g>
      <animate attributeName="display" begin="0s" repeatCount="indefinite" dur="0.46s" keyTimes="0;0.09;0.18;1" values="none;inline;none;none" transform="matrix(1 0 0 1 -0.5 0.05)"/>
    </g>
    <g id="Bulb_3_0">
      <g id="element2">
        <path id="path14" fill="#FFF" d="M96.24,115.25 C97.39,114.1 97.39,112.22 96.24,111.07 95.08,109.91 93.21,109.91 92.05,111.07 L89.08,114.04 C87.92,115.2 87.92,117.07 89.08,118.23 Q89.96,119.09 91.17,119.09 C91.92,119.09 92.68,118.8 93.26,118.23 L96.24,115.25z"/>
      </g>
      <g id="element3">
        <path id="path15" fill="#FFF" d="M78.24,76.15 C76.6,76.15 75.28,77.47 75.28,79.11 75.28,80.73 76.6,82.06 78.24,82.06 L80.6,82.06 C82.23,82.06 83.55,80.73 83.55,79.11 83.55,77.47 82.23,76.15 80.6,76.15 L78.24,76.15z"/>
      </g>
      <g id="element4">
        <path id="path16" fill="#FFF" d="M97,43.13 L95.85,41.99 C94.7,40.83 92.82,40.83 91.67,41.99 90.51,43.14 90.51,45.02 91.67,46.17 L92.81,47.32 Q93.7,48.19 94.91,48.19 C95.67,48.19 96.42,47.89 97,47.32 98.15,46.16 98.15,44.29 97,43.13z"/>
      </g>
      <g id="element5">
        <path id="path17" fill="#FFF" d="M132.04,23.16 C132.04,21.52 130.72,20.2 129.09,20.2 127.45,20.2 126.13,21.52 126.13,23.16 L126.13,31.8 Q126.13,33.03 127,33.88 127.86,34.75 129.09,34.75 C130.72,34.75 132.04,33.43 132.04,31.8 L132.04,23.16z"/>
      </g>
      <g id="element6">
        <path id="path18" fill="#FFF" d="M164.22,112.03 C163.06,110.87 161.19,110.87 160.03,112.03 158.88,113.18 158.88,115.06 160.03,116.21 L169.15,125.33 Q170.03,126.19 171.25,126.19 C172,126.19 172.76,125.91 173.34,125.33 174.49,124.18 174.49,122.3 173.34,121.15 L164.22,112.03z"/>
      </g>
      <g id="element7">
        <path id="path19" fill="#FFF" d="M182.93,83.17 C184.56,83.17 185.89,81.84 185.89,80.21 185.89,78.58 184.56,77.26 182.93,77.26 L176.31,77.26 C174.68,77.26 173.36,78.58 173.36,80.21 173.36,81.84 174.68,83.17 176.31,83.17 L182.93,83.17z"/>
      </g>
      <g id="element8">
        <path id="path20" fill="#FFF" d="M169.44,39.35 C168.28,38.21 166.41,38.21 165.25,39.35 L160.45,44.17 C159.29,45.32 159.29,47.19 160.45,48.35 Q161.32,49.21 162.54,49.21 C163.29,49.21 164.05,48.93 164.63,48.35 L169.44,43.54 C170.59,42.39 170.59,40.51 169.44,39.35z"/>
      </g>
      <g id="element9">
        <path id="path21" fill="#FFF" d="M129.09,48.04 C146.45,48.04 160.57,62.16 160.57,79.52 160.57,88.98 157.45,92.97 153.52,98 149.54,103.09 145.03,108.86 142.91,120.81 Q142.7,122.01 143.4,123.01 144.1,124.02 145.3,124.23 C146.91,124.52 148.45,123.44 148.73,121.83 150.6,111.33 154.45,106.41 158.18,101.65 162.44,96.18 166.48,91.02 166.48,79.52 166.48,58.91 149.71,42.13 129.09,42.13 108.46,42.13 91.69,58.91 91.69,79.52 91.69,91.02 95.72,96.18 100,101.65 103.93,106.67 107.99,111.86 109.72,123.54 110.65,129.82 114.46,133.57 119.92,133.57 L132.46,133.57 C134.1,133.54 135.69,133.51 137.27,133.51 138.85,133.51 140.43,133.54 141.87,133.7 L142.5,133.8 C141.92,133.96 141.29,134.1 140.65,134.21 139.91,134.35 139.14,134.45 138.36,134.54 136.81,134.71 135.21,134.82 133.61,134.91 132,134.99 130.36,135.05 128.73,135.12 127.08,135.18 125.43,135.25 123.75,135.36 122.91,135.41 122.06,135.49 121.2,135.58 120.33,135.67 119.46,135.78 118.53,135.98 118.06,136.08 117.57,136.19 117.06,136.37 116.8,136.46 116.52,136.56 116.24,136.69 115.94,136.83 115.63,136.99 115.27,137.24 115.1,137.36 114.91,137.52 114.73,137.7 114.54,137.9 114.35,138.13 114.17,138.42 114.01,138.71 113.86,139.04 113.78,139.41 113.74,139.58 113.7,139.77 113.69,139.95 L113.68,140.14 C113.68,140.23 113.68,140.06 113.68,140.34 L113.79,141.04 C113.83,141.23 113.9,141.39 113.96,141.56 114.1,141.87 114.28,142.16 114.45,142.37 114.8,142.82 115.14,143.09 115.46,143.3 116.09,143.72 116.6,143.93 117.1,144.13 117.6,144.3 118.07,144.44 118.53,144.55 119.43,144.78 120.3,144.94 121.16,145.08 122.88,145.35 124.55,145.51 126.2,145.67 129.52,145.97 132.8,146.15 136.02,146.43 L138.05,146.61 C136.03,146.83 133.94,146.95 131.83,147.07 129.47,147.21 127.07,147.32 124.63,147.53 124.02,147.58 123.4,147.65 122.78,147.72 122.15,147.79 121.51,147.88 120.84,148.01 120.5,148.06 120.16,148.14 119.8,148.23 119.45,148.32 119.07,148.43 118.64,148.61 118.42,148.69 118.19,148.8 117.93,148.95 117.67,149.1 117.37,149.29 117.03,149.63 116.86,149.8 116.68,150.02 116.52,150.29 116.36,150.58 116.22,150.91 116.14,151.29 116.07,151.66 116.06,152.05 116.11,152.37 116.14,152.54 116.17,152.68 116.22,152.83 L116.36,153.22 C116.48,153.51 116.66,153.78 116.87,154.02 L117,154.17 117.23,154.38 117.34,154.47 C117.61,154.66 117.81,154.77 117.99,154.87 118.34,155.06 118.62,155.16 118.89,155.26 119.42,155.45 119.88,155.59 120.36,155.72 121.28,155.96 122.16,156.16 123.04,156.35 124.78,156.72 126.5,157.04 128.2,157.38 129.89,157.71 131.57,158.05 133.18,158.45 133.98,158.65 134.76,158.87 135.44,159.11 135.6,159.18 135.76,159.23 135.9,159.3 L135.91,159.3 C136.23,159.96 136.84,160.49 137.62,160.68 139.02,161.04 140.44,160.19 140.79,158.78 140.88,158.45 140.91,158.09 140.87,157.73 140.84,157.39 140.74,157.05 140.63,156.79 140.51,156.52 140.38,156.32 140.25,156.14 140.19,156.06 140.13,155.97 140.06,155.91 L139.89,155.72 C139.44,155.27 139.09,155.09 138.78,154.9 138.48,154.73 138.2,154.6 137.93,154.49 137.67,154.38 137.42,154.29 137.17,154.21 136.2,153.87 135.31,153.64 134.41,153.42 132.63,153.01 130.9,152.66 129.17,152.34 L128.68,152.25 C129.82,152.17 130.96,152.12 132.12,152.05 134.51,151.9 136.91,151.75 139.39,151.45 140.01,151.37 140.64,151.29 141.28,151.18 141.91,151.07 142.56,150.94 143.23,150.76 143.92,150.58 144.62,150.36 145.44,149.94 145.85,149.71 146.31,149.44 146.81,148.9 147.06,148.64 147.31,148.29 147.5,147.86 147.68,147.47 147.78,147 147.8,146.56 147.83,146.14 147.76,145.68 147.62,145.29 147.47,144.86 147.24,144.51 147.01,144.26 146.8,144.01 146.59,143.83 146.4,143.68 146.22,143.54 146.03,143.43 145.88,143.34 145.54,143.16 145.26,143.04 144.99,142.93 144.72,142.83 144.46,142.75 144.22,142.68 143.24,142.39 142.37,142.23 141.5,142.09 139.77,141.83 138.11,141.67 136.44,141.52 133.13,141.23 129.86,141.03 126.66,140.74 125.58,140.63 124.5,140.52 123.46,140.39 L124.07,140.35 C125.66,140.25 127.29,140.18 128.92,140.13 130.55,140.06 132.2,140.01 133.86,139.92 135.52,139.85 137.2,139.76 138.9,139.58 139.76,139.5 140.62,139.39 141.5,139.25 142.37,139.11 143.27,138.93 144.21,138.67 144.68,138.53 145.17,138.36 145.67,138.14 146.18,137.92 146.72,137.65 147.28,137.22 147.56,136.99 147.85,136.73 148.13,136.4 148.41,136.08 148.67,135.68 148.86,135.22 148.96,134.99 149.04,134.75 149.09,134.5 L149.14,134.31 149.21,133.64 149.21,133.39 C149.2,133.26 149.2,133.12 149.18,132.98 149.15,132.72 149.08,132.44 149,132.17 148.82,131.63 148.52,131.14 148.21,130.77 147.89,130.4 147.56,130.12 147.24,129.9 146.61,129.46 146.03,129.22 145.51,129.03 144.45,128.66 143.52,128.47 142.61,128.34 141.7,128.2 140.82,128.1 139.96,128.03 139.09,127.97 138.24,127.91 137.4,127.86 135.73,127.78 134.09,127.74 132.47,127.65 L119.92,127.65 C119.03,127.65 116.31,127.65 115.57,122.67 113.61,109.45 108.85,103.37 104.66,98 100.72,92.97 97.61,88.98 97.61,79.52 97.61,62.16 111.73,48.04 129.09,48.04z"/>
      </g>
      <animate attributeName="display" begin="0s" repeatCount="indefinite" dur="0.46s" keyTimes="0;0.09;1" values="inline;none;none" transform="matrix(1 0 0 1 -0.5 0.05)"/>
    </g>
    <g id="Bulb_2_0">
      <g id="element1">
        <g id="drawingObject1">
          <path id="path1" fill="#1C4758" d="M58.75,85.45 C58.05,82.75 56.75,80.7 54.7,79.2 52.7,77.75 50.15,77 47.15,77 43.45,77 40.3,78.25 37.75,80.8 Q33.9,84.5 33.9,91.3 C33.9,95.8 35.15,99.3 37.75,101.85 40.3,104.35 43.45,105.6 47.15,105.6 50.15,105.6 52.7,104.9 54.7,103.4 56.75,101.9 58.05,99.85 58.75,97.15 L54.05,95.95 C52.8,99.2 50.5,100.85 47.15,100.85 44.85,100.85 42.9,100 41.4,98.4 39.95,96.75 39.2,94.4 39.2,91.3 39.2,88.25 39.95,85.85 41.4,84.25 42.9,82.6 44.85,81.8 47.15,81.8 50.5,81.8 52.8,83.4 54.05,86.65 L58.75,85.45z"/>
        </g>
        <g id="drawingObject2">
          <path id="path2" fill="#1C4758" d="M87.65,83.3 C85.3,79.1 81.5,77 76.3,77 73.9,77 71.7,77.5 69.7,78.5 67.7,79.5 66.1,81.15 64.9,83.4 63.7,85.65 63.1,88.25 63.1,91.3 63.1,94.45 63.7,97.1 64.95,99.3 67.35,103.5 71.1,105.6 76.3,105.6 78.75,105.6 80.95,105.15 82.85,104.15 84.85,103.1 86.45,101.45 87.7,99.2 88.9,96.95 89.5,94.35 89.5,91.3 89.5,88.2 88.9,85.55 87.65,83.3z M81.95,84.2 C83.45,85.8 84.2,88.15 84.2,91.3 84.2,94.45 83.45,96.85 81.95,98.45 80.45,100.05 78.55,100.85 76.3,100.85 74,100.85 72.1,100.05 70.6,98.45 Q68.35,96.05 68.35,91.3 C68.35,88.15 69.1,85.8 70.6,84.2 72.1,82.6 74,81.8 76.3,81.8 78.55,81.8 80.45,82.6 81.95,84.2z"/>
        </g>
        <g id="drawingObject3">
          <path id="path6" fill="#1C4758" d="M117.15,105.3 L117.15,77.3 111.95,77.3 111.95,95.8 101.7,77.3 96.2,77.3 96.2,105.3 101.4,105.3 101.4,86.85 111.7,105.3 117.15,105.3z"/>
        </g>
        <g id="drawingObject4">
          <path id="path7" fill="#1C4758" d="M148.7,97.15 L144,95.95 C142.8,99.2 140.45,100.85 137.1,100.85 134.8,100.85 132.9,100 131.4,98.4 129.9,96.75 129.15,94.4 129.15,91.3 129.15,88.25 129.9,85.85 131.4,84.25 132.9,82.6 134.8,81.8 137.1,81.8 140.45,81.8 142.8,83.4 144,86.65 L148.7,85.45 C148.05,82.75 146.7,80.7 144.7,79.2 142.65,77.75 140.15,77 137.1,77 133.4,77 130.3,78.25 127.7,80.8 Q123.85,84.6 123.85,91.3 C123.85,95.8 125.15,99.3 127.7,101.85 130.25,104.35 133.4,105.6 137.1,105.6 140.15,105.6 142.65,104.9 144.7,103.4 146.7,101.9 148.05,99.85 148.7,97.15z"/>
        </g>
        <g id="drawingObject5">
          <path id="path8" fill="#1C4758" d="M169.65,88 L159.95,88 159.95,82.1 172.05,82.1 172.05,77.3 154.75,77.3 154.75,105.3 172.45,105.3 172.45,100.5 159.95,100.5 159.95,92.8 169.65,92.8 169.65,88z"/>
        </g>
        <g id="drawingObject6">
          <path id="path9" fill="#1C4758" d="M198.25,85.85 C198.25,83.2 197.5,81.15 195.95,79.6 194.45,78.05 192.3,77.3 189.5,77.3 L178.9,77.3 178.9,105.3 184.15,105.3 184.15,94.35 189.5,94.35 C192.3,94.35 194.45,93.6 195.95,92.05 197.5,90.5 198.25,88.45 198.25,85.85z M184.15,82.1 L189.3,82.1 C191.75,82.1 192.95,83.35 192.95,85.85 192.95,88.3 191.75,89.55 189.3,89.55 L184.15,89.55 184.15,82.1z"/>
        </g>
        <g id="drawingObject7">
          <path id="path13" fill="#1C4758" d="M200.5,77.3 L200.5,82.1 208.3,82.1 208.3,105.3 213.5,105.3 213.5,82.1 221.25,82.1 221.25,77.3 200.5,77.3z"/>
        </g>
      </g>
    </g>
    <g id="Bulb_1_0">
      <g id="element">
        <path id="path" fill="#1C4758" d="M259.3,95.8 Q260.75,94.35 260.75,92.25 C260.75,89.5 258.5,87.25 255.75,87.25 252.95,87.25 250.75,89.5 250.75,92.25 250.75,95.05 252.95,97.25 255.75,97.25 Q257.8,97.25 259.3,95.8z"/>
      </g>
    </g>
  </g>
</svg>